<mxfile host="Electron" modified="2024-02-07T05:44:10.790Z" agent="Mozilla/5.0 (X11; Linux x86_64) AppleWebKit/537.36 (KHTML, like Gecko) draw.io/21.6.5 Chrome/114.0.5735.243 Electron/25.3.1 Safari/537.36" version="21.6.5" etag="NmrtbBJzH6_865jN8iFd" type="device" pages="3">
  <diagram id="vtQbG2iCPwCNItK1zILO" name="ArbolGenerico">
    <mxGraphModel dx="1434" dy="839" grid="1" gridSize="10" guides="1" tooltips="1" connect="1" arrows="1" fold="1" page="1" pageScale="1" pageWidth="850" pageHeight="1100" background="none" math="0" shadow="0">
      <root>
        <mxCell id="0" />
        <mxCell id="1" parent="0" />
        <mxCell id="65" value="ARBOL GENERICO &quot;B&quot;" style="swimlane;whiteSpace=wrap;html=1;shadow=0;labelBackgroundColor=none;rounded=0;gradientColor=none;swimlaneFillColor=default;" parent="1" vertex="1">
          <mxGeometry x="37.5" y="370" width="572.5" height="570" as="geometry" />
        </mxCell>
        <mxCell id="64" value="ARBOL GENERICO &quot;A&quot;" style="swimlane;whiteSpace=wrap;html=1;fillColor=default;gradientColor=none;shadow=0;swimlaneFillColor=default;labelBackgroundColor=none;rounded=0;" parent="1" vertex="1">
          <mxGeometry x="50" y="10" width="380" height="330" as="geometry" />
        </mxCell>
        <mxCell id="13" style="edgeStyle=none;html=1;entryX=1;entryY=0;entryDx=0;entryDy=0;endArrow=none;endFill=0;" parent="1" source="2" target="11" edge="1">
          <mxGeometry relative="1" as="geometry" />
        </mxCell>
        <mxCell id="14" style="edgeStyle=none;html=1;endArrow=none;endFill=0;" parent="1" source="2" target="10" edge="1">
          <mxGeometry relative="1" as="geometry" />
        </mxCell>
        <mxCell id="15" style="edgeStyle=none;html=1;endArrow=none;endFill=0;" parent="1" source="2" target="9" edge="1">
          <mxGeometry relative="1" as="geometry" />
        </mxCell>
        <mxCell id="2" value="A" style="ellipse;whiteSpace=wrap;html=1;aspect=fixed;" parent="1" vertex="1">
          <mxGeometry x="200" y="40" width="40" height="40" as="geometry" />
        </mxCell>
        <mxCell id="3" value="F" style="ellipse;whiteSpace=wrap;html=1;aspect=fixed;" parent="1" vertex="1">
          <mxGeometry x="165" y="200" width="40" height="40" as="geometry" />
        </mxCell>
        <mxCell id="4" value="E" style="ellipse;whiteSpace=wrap;html=1;aspect=fixed;" parent="1" vertex="1">
          <mxGeometry x="95" y="200" width="40" height="40" as="geometry" />
        </mxCell>
        <mxCell id="5" value="J" style="ellipse;whiteSpace=wrap;html=1;aspect=fixed;" parent="1" vertex="1">
          <mxGeometry x="345" y="280" width="40" height="40" as="geometry" />
        </mxCell>
        <mxCell id="6" value="I" style="ellipse;whiteSpace=wrap;html=1;aspect=fixed;" parent="1" vertex="1">
          <mxGeometry x="275" y="280" width="40" height="40" as="geometry" />
        </mxCell>
        <mxCell id="20" style="edgeStyle=none;html=1;endArrow=none;endFill=0;" parent="1" source="7" target="6" edge="1">
          <mxGeometry relative="1" as="geometry" />
        </mxCell>
        <mxCell id="21" style="edgeStyle=none;html=1;endArrow=none;endFill=0;" parent="1" source="7" target="5" edge="1">
          <mxGeometry relative="1" as="geometry" />
        </mxCell>
        <mxCell id="7" value="H" style="ellipse;whiteSpace=wrap;html=1;aspect=fixed;" parent="1" vertex="1">
          <mxGeometry x="310" y="200" width="40" height="40" as="geometry" />
        </mxCell>
        <mxCell id="8" value="G" style="ellipse;whiteSpace=wrap;html=1;aspect=fixed;" parent="1" vertex="1">
          <mxGeometry x="250" y="200" width="40" height="40" as="geometry" />
        </mxCell>
        <mxCell id="18" style="edgeStyle=none;html=1;entryX=0.5;entryY=0;entryDx=0;entryDy=0;endArrow=none;endFill=0;" parent="1" source="9" target="8" edge="1">
          <mxGeometry relative="1" as="geometry" />
        </mxCell>
        <mxCell id="19" style="edgeStyle=none;html=1;entryX=0.5;entryY=0;entryDx=0;entryDy=0;endArrow=none;endFill=0;" parent="1" source="9" target="7" edge="1">
          <mxGeometry relative="1" as="geometry" />
        </mxCell>
        <mxCell id="9" value="D" style="ellipse;whiteSpace=wrap;html=1;aspect=fixed;" parent="1" vertex="1">
          <mxGeometry x="280" y="120" width="40" height="40" as="geometry" />
        </mxCell>
        <mxCell id="10" value="C" style="ellipse;whiteSpace=wrap;html=1;aspect=fixed;" parent="1" vertex="1">
          <mxGeometry x="200" y="120" width="40" height="40" as="geometry" />
        </mxCell>
        <mxCell id="16" style="edgeStyle=none;html=1;entryX=1;entryY=0;entryDx=0;entryDy=0;endArrow=none;endFill=0;" parent="1" source="11" target="4" edge="1">
          <mxGeometry relative="1" as="geometry" />
        </mxCell>
        <mxCell id="17" style="edgeStyle=none;html=1;endArrow=none;endFill=0;" parent="1" source="11" target="3" edge="1">
          <mxGeometry relative="1" as="geometry" />
        </mxCell>
        <mxCell id="11" value="B" style="ellipse;whiteSpace=wrap;html=1;aspect=fixed;" parent="1" vertex="1">
          <mxGeometry x="130" y="120" width="40" height="40" as="geometry" />
        </mxCell>
        <mxCell id="23" style="edgeStyle=none;html=1;entryX=1;entryY=0;entryDx=0;entryDy=0;endArrow=none;endFill=0;" parent="1" source="26" target="41" edge="1">
          <mxGeometry relative="1" as="geometry" />
        </mxCell>
        <mxCell id="24" style="edgeStyle=none;html=1;endArrow=none;endFill=0;" parent="1" source="26" target="38" edge="1">
          <mxGeometry relative="1" as="geometry" />
        </mxCell>
        <mxCell id="25" style="edgeStyle=none;html=1;endArrow=none;endFill=0;" parent="1" source="26" target="37" edge="1">
          <mxGeometry relative="1" as="geometry" />
        </mxCell>
        <mxCell id="26" value="A" style="ellipse;whiteSpace=wrap;html=1;aspect=fixed;" parent="1" vertex="1">
          <mxGeometry x="217.5" y="400" width="40" height="40" as="geometry" />
        </mxCell>
        <mxCell id="54" style="edgeStyle=none;html=1;endArrow=none;endFill=0;" parent="1" source="27" target="53" edge="1">
          <mxGeometry relative="1" as="geometry" />
        </mxCell>
        <mxCell id="27" value="E" style="ellipse;whiteSpace=wrap;html=1;aspect=fixed;" parent="1" vertex="1">
          <mxGeometry x="190" y="560" width="40" height="40" as="geometry" />
        </mxCell>
        <mxCell id="28" value="D" style="ellipse;whiteSpace=wrap;html=1;aspect=fixed;" parent="1" vertex="1">
          <mxGeometry x="112.5" y="560" width="40" height="40" as="geometry" />
        </mxCell>
        <mxCell id="29" value="R" style="ellipse;whiteSpace=wrap;html=1;aspect=fixed;" parent="1" vertex="1">
          <mxGeometry x="430" y="640" width="40" height="40" as="geometry" />
        </mxCell>
        <mxCell id="30" value="Q" style="ellipse;whiteSpace=wrap;html=1;aspect=fixed;" parent="1" vertex="1">
          <mxGeometry x="360" y="640" width="40" height="40" as="geometry" />
        </mxCell>
        <mxCell id="31" style="edgeStyle=none;html=1;endArrow=none;endFill=0;" parent="1" source="33" target="30" edge="1">
          <mxGeometry relative="1" as="geometry" />
        </mxCell>
        <mxCell id="32" style="edgeStyle=none;html=1;endArrow=none;endFill=0;" parent="1" source="33" target="29" edge="1">
          <mxGeometry relative="1" as="geometry" />
        </mxCell>
        <mxCell id="61" style="edgeStyle=none;html=1;endArrow=none;endFill=0;" parent="1" source="33" target="46" edge="1">
          <mxGeometry relative="1" as="geometry" />
        </mxCell>
        <mxCell id="33" value="P" style="ellipse;whiteSpace=wrap;html=1;aspect=fixed;" parent="1" vertex="1">
          <mxGeometry x="377.5" y="560" width="40" height="40" as="geometry" />
        </mxCell>
        <mxCell id="55" style="edgeStyle=none;html=1;entryX=0.5;entryY=0;entryDx=0;entryDy=0;endArrow=none;endFill=0;" parent="1" source="34" target="50" edge="1">
          <mxGeometry relative="1" as="geometry" />
        </mxCell>
        <mxCell id="34" value="F" style="ellipse;whiteSpace=wrap;html=1;aspect=fixed;" parent="1" vertex="1">
          <mxGeometry x="245" y="560" width="40" height="40" as="geometry" />
        </mxCell>
        <mxCell id="36" style="edgeStyle=none;html=1;entryX=0.5;entryY=0;entryDx=0;entryDy=0;endArrow=none;endFill=0;" parent="1" source="37" target="33" edge="1">
          <mxGeometry relative="1" as="geometry" />
        </mxCell>
        <mxCell id="37" value="O" style="ellipse;whiteSpace=wrap;html=1;aspect=fixed;" parent="1" vertex="1">
          <mxGeometry x="297.5" y="480" width="40" height="40" as="geometry" />
        </mxCell>
        <mxCell id="43" style="edgeStyle=none;html=1;endArrow=none;endFill=0;" parent="1" source="38" target="27" edge="1">
          <mxGeometry relative="1" as="geometry" />
        </mxCell>
        <mxCell id="44" style="edgeStyle=none;html=1;endArrow=none;endFill=0;" parent="1" source="38" target="34" edge="1">
          <mxGeometry relative="1" as="geometry" />
        </mxCell>
        <mxCell id="38" value="C" style="ellipse;whiteSpace=wrap;html=1;aspect=fixed;" parent="1" vertex="1">
          <mxGeometry x="217.5" y="480" width="40" height="40" as="geometry" />
        </mxCell>
        <mxCell id="39" style="edgeStyle=none;html=1;entryX=1;entryY=0;entryDx=0;entryDy=0;endArrow=none;endFill=0;" parent="1" source="41" target="28" edge="1">
          <mxGeometry relative="1" as="geometry" />
        </mxCell>
        <mxCell id="41" value="B" style="ellipse;whiteSpace=wrap;html=1;aspect=fixed;" parent="1" vertex="1">
          <mxGeometry x="147.5" y="480" width="40" height="40" as="geometry" />
        </mxCell>
        <mxCell id="45" value="T" style="ellipse;whiteSpace=wrap;html=1;aspect=fixed;" parent="1" vertex="1">
          <mxGeometry x="540" y="720" width="40" height="40" as="geometry" />
        </mxCell>
        <mxCell id="62" style="edgeStyle=none;html=1;endArrow=none;endFill=0;" parent="1" source="46" target="45" edge="1">
          <mxGeometry relative="1" as="geometry" />
        </mxCell>
        <mxCell id="46" value="S" style="ellipse;whiteSpace=wrap;html=1;aspect=fixed;" parent="1" vertex="1">
          <mxGeometry x="500" y="640" width="40" height="40" as="geometry" />
        </mxCell>
        <mxCell id="47" value="N" style="ellipse;whiteSpace=wrap;html=1;aspect=fixed;" parent="1" vertex="1">
          <mxGeometry x="377.5" y="880" width="40" height="40" as="geometry" />
        </mxCell>
        <mxCell id="60" style="edgeStyle=none;html=1;endArrow=none;endFill=0;" parent="1" source="48" target="47" edge="1">
          <mxGeometry relative="1" as="geometry" />
        </mxCell>
        <mxCell id="48" value="M" style="ellipse;whiteSpace=wrap;html=1;aspect=fixed;" parent="1" vertex="1">
          <mxGeometry x="337.5" y="800" width="40" height="40" as="geometry" />
        </mxCell>
        <mxCell id="59" style="edgeStyle=none;html=1;endArrow=none;endFill=0;" parent="1" source="49" target="48" edge="1">
          <mxGeometry relative="1" as="geometry" />
        </mxCell>
        <mxCell id="49" value="K" style="ellipse;whiteSpace=wrap;html=1;aspect=fixed;" parent="1" vertex="1">
          <mxGeometry x="305" y="720" width="40" height="40" as="geometry" />
        </mxCell>
        <mxCell id="58" style="edgeStyle=none;html=1;endArrow=none;endFill=0;" parent="1" source="50" target="49" edge="1">
          <mxGeometry relative="1" as="geometry" />
        </mxCell>
        <mxCell id="50" value="J" style="ellipse;whiteSpace=wrap;html=1;aspect=fixed;" parent="1" vertex="1">
          <mxGeometry x="270" y="640" width="40" height="40" as="geometry" />
        </mxCell>
        <mxCell id="51" value="I" style="ellipse;whiteSpace=wrap;html=1;aspect=fixed;" parent="1" vertex="1">
          <mxGeometry x="80" y="800" width="40" height="40" as="geometry" />
        </mxCell>
        <mxCell id="57" style="edgeStyle=none;html=1;endArrow=none;endFill=0;" parent="1" source="52" target="51" edge="1">
          <mxGeometry relative="1" as="geometry" />
        </mxCell>
        <mxCell id="52" value="H" style="ellipse;whiteSpace=wrap;html=1;aspect=fixed;" parent="1" vertex="1">
          <mxGeometry x="120" y="720" width="40" height="40" as="geometry" />
        </mxCell>
        <mxCell id="56" style="edgeStyle=none;html=1;entryX=1;entryY=0;entryDx=0;entryDy=0;endArrow=none;endFill=0;" parent="1" source="53" target="52" edge="1">
          <mxGeometry relative="1" as="geometry" />
        </mxCell>
        <mxCell id="53" value="G" style="ellipse;whiteSpace=wrap;html=1;aspect=fixed;" parent="1" vertex="1">
          <mxGeometry x="160" y="640" width="40" height="40" as="geometry" />
        </mxCell>
        <mxCell id="jhgmRQw9Yo3TFWCBX6kU-65" value="ARBOL GENERICO &quot;A&quot; con elementos repetidos" style="swimlane;whiteSpace=wrap;html=1;fillColor=default;gradientColor=none;shadow=0;swimlaneFillColor=default;labelBackgroundColor=none;rounded=0;" vertex="1" parent="1">
          <mxGeometry x="440" y="10" width="410" height="330" as="geometry" />
        </mxCell>
        <mxCell id="jhgmRQw9Yo3TFWCBX6kU-84" value="B" style="ellipse;whiteSpace=wrap;html=1;aspect=fixed;" vertex="1" parent="jhgmRQw9Yo3TFWCBX6kU-65">
          <mxGeometry x="70" y="110" width="40" height="40" as="geometry" />
        </mxCell>
        <mxCell id="jhgmRQw9Yo3TFWCBX6kU-86" style="edgeStyle=orthogonalEdgeStyle;rounded=0;orthogonalLoop=1;jettySize=auto;html=1;entryX=0.5;entryY=0;entryDx=0;entryDy=0;endArrow=none;endFill=0;" edge="1" parent="jhgmRQw9Yo3TFWCBX6kU-65" source="jhgmRQw9Yo3TFWCBX6kU-81" target="jhgmRQw9Yo3TFWCBX6kU-85">
          <mxGeometry relative="1" as="geometry" />
        </mxCell>
        <mxCell id="jhgmRQw9Yo3TFWCBX6kU-81" value="C" style="ellipse;whiteSpace=wrap;html=1;aspect=fixed;" vertex="1" parent="jhgmRQw9Yo3TFWCBX6kU-65">
          <mxGeometry x="156" y="110" width="40" height="40" as="geometry" />
        </mxCell>
        <mxCell id="jhgmRQw9Yo3TFWCBX6kU-85" value="X" style="ellipse;whiteSpace=wrap;html=1;aspect=fixed;" vertex="1" parent="jhgmRQw9Yo3TFWCBX6kU-65">
          <mxGeometry x="156" y="190" width="40" height="40" as="geometry" />
        </mxCell>
        <mxCell id="jhgmRQw9Yo3TFWCBX6kU-94" style="rounded=0;orthogonalLoop=1;jettySize=auto;html=1;endArrow=none;endFill=0;strokeColor=default;" edge="1" parent="jhgmRQw9Yo3TFWCBX6kU-65" source="jhgmRQw9Yo3TFWCBX6kU-87" target="jhgmRQw9Yo3TFWCBX6kU-91">
          <mxGeometry relative="1" as="geometry" />
        </mxCell>
        <mxCell id="jhgmRQw9Yo3TFWCBX6kU-87" value="C" style="ellipse;whiteSpace=wrap;html=1;aspect=fixed;" vertex="1" parent="jhgmRQw9Yo3TFWCBX6kU-65">
          <mxGeometry x="320" y="110" width="40" height="40" as="geometry" />
        </mxCell>
        <mxCell id="jhgmRQw9Yo3TFWCBX6kU-95" style="edgeStyle=orthogonalEdgeStyle;rounded=0;orthogonalLoop=1;jettySize=auto;html=1;endArrow=none;endFill=0;" edge="1" parent="jhgmRQw9Yo3TFWCBX6kU-65" source="jhgmRQw9Yo3TFWCBX6kU-91" target="jhgmRQw9Yo3TFWCBX6kU-93">
          <mxGeometry relative="1" as="geometry" />
        </mxCell>
        <mxCell id="jhgmRQw9Yo3TFWCBX6kU-91" value="X" style="ellipse;whiteSpace=wrap;html=1;aspect=fixed;" vertex="1" parent="jhgmRQw9Yo3TFWCBX6kU-65">
          <mxGeometry x="360" y="190" width="40" height="40" as="geometry" />
        </mxCell>
        <mxCell id="jhgmRQw9Yo3TFWCBX6kU-93" value="Y" style="ellipse;whiteSpace=wrap;html=1;aspect=fixed;" vertex="1" parent="jhgmRQw9Yo3TFWCBX6kU-65">
          <mxGeometry x="360" y="270" width="40" height="40" as="geometry" />
        </mxCell>
        <mxCell id="jhgmRQw9Yo3TFWCBX6kU-80" value="D" style="ellipse;whiteSpace=wrap;html=1;aspect=fixed;" vertex="1" parent="jhgmRQw9Yo3TFWCBX6kU-65">
          <mxGeometry x="240" y="110" width="40" height="40" as="geometry" />
        </mxCell>
        <mxCell id="jhgmRQw9Yo3TFWCBX6kU-66" style="edgeStyle=none;html=1;entryX=1;entryY=0;entryDx=0;entryDy=0;endArrow=none;endFill=0;" edge="1" parent="1" source="jhgmRQw9Yo3TFWCBX6kU-69" target="jhgmRQw9Yo3TFWCBX6kU-84">
          <mxGeometry relative="1" as="geometry" />
        </mxCell>
        <mxCell id="jhgmRQw9Yo3TFWCBX6kU-67" style="edgeStyle=none;html=1;endArrow=none;endFill=0;" edge="1" parent="1" source="jhgmRQw9Yo3TFWCBX6kU-69" target="jhgmRQw9Yo3TFWCBX6kU-81">
          <mxGeometry relative="1" as="geometry" />
        </mxCell>
        <mxCell id="jhgmRQw9Yo3TFWCBX6kU-68" style="edgeStyle=none;html=1;endArrow=none;endFill=0;" edge="1" parent="1" source="jhgmRQw9Yo3TFWCBX6kU-69" target="jhgmRQw9Yo3TFWCBX6kU-80">
          <mxGeometry relative="1" as="geometry" />
        </mxCell>
        <mxCell id="jhgmRQw9Yo3TFWCBX6kU-69" value="A" style="ellipse;whiteSpace=wrap;html=1;aspect=fixed;" vertex="1" parent="1">
          <mxGeometry x="610" y="40" width="40" height="40" as="geometry" />
        </mxCell>
        <mxCell id="jhgmRQw9Yo3TFWCBX6kU-70" value="F" style="ellipse;whiteSpace=wrap;html=1;aspect=fixed;" vertex="1" parent="1">
          <mxGeometry x="540" y="200" width="40" height="40" as="geometry" />
        </mxCell>
        <mxCell id="jhgmRQw9Yo3TFWCBX6kU-71" value="E" style="ellipse;whiteSpace=wrap;html=1;aspect=fixed;" vertex="1" parent="1">
          <mxGeometry x="470" y="200" width="40" height="40" as="geometry" />
        </mxCell>
        <mxCell id="jhgmRQw9Yo3TFWCBX6kU-72" value="J" style="ellipse;whiteSpace=wrap;html=1;aspect=fixed;" vertex="1" parent="1">
          <mxGeometry x="750" y="280" width="40" height="40" as="geometry" />
        </mxCell>
        <mxCell id="jhgmRQw9Yo3TFWCBX6kU-73" value="I" style="ellipse;whiteSpace=wrap;html=1;aspect=fixed;" vertex="1" parent="1">
          <mxGeometry x="693" y="280" width="40" height="40" as="geometry" />
        </mxCell>
        <mxCell id="jhgmRQw9Yo3TFWCBX6kU-74" style="edgeStyle=none;html=1;endArrow=none;endFill=0;" edge="1" parent="1" source="jhgmRQw9Yo3TFWCBX6kU-76" target="jhgmRQw9Yo3TFWCBX6kU-73">
          <mxGeometry relative="1" as="geometry" />
        </mxCell>
        <mxCell id="jhgmRQw9Yo3TFWCBX6kU-75" style="edgeStyle=none;html=1;endArrow=none;endFill=0;" edge="1" parent="1" source="jhgmRQw9Yo3TFWCBX6kU-76" target="jhgmRQw9Yo3TFWCBX6kU-72">
          <mxGeometry relative="1" as="geometry" />
        </mxCell>
        <mxCell id="jhgmRQw9Yo3TFWCBX6kU-76" value="H" style="ellipse;whiteSpace=wrap;html=1;aspect=fixed;" vertex="1" parent="1">
          <mxGeometry x="720" y="200" width="40" height="40" as="geometry" />
        </mxCell>
        <mxCell id="jhgmRQw9Yo3TFWCBX6kU-77" value="G" style="ellipse;whiteSpace=wrap;html=1;aspect=fixed;" vertex="1" parent="1">
          <mxGeometry x="660" y="200" width="40" height="40" as="geometry" />
        </mxCell>
        <mxCell id="jhgmRQw9Yo3TFWCBX6kU-78" style="edgeStyle=none;html=1;entryX=0.5;entryY=0;entryDx=0;entryDy=0;endArrow=none;endFill=0;" edge="1" parent="1" source="jhgmRQw9Yo3TFWCBX6kU-80" target="jhgmRQw9Yo3TFWCBX6kU-77">
          <mxGeometry relative="1" as="geometry" />
        </mxCell>
        <mxCell id="jhgmRQw9Yo3TFWCBX6kU-79" style="edgeStyle=none;html=1;entryX=0.5;entryY=0;entryDx=0;entryDy=0;endArrow=none;endFill=0;" edge="1" parent="1" source="jhgmRQw9Yo3TFWCBX6kU-80" target="jhgmRQw9Yo3TFWCBX6kU-76">
          <mxGeometry relative="1" as="geometry" />
        </mxCell>
        <mxCell id="jhgmRQw9Yo3TFWCBX6kU-82" style="edgeStyle=none;html=1;entryX=1;entryY=0;entryDx=0;entryDy=0;endArrow=none;endFill=0;" edge="1" parent="1" source="jhgmRQw9Yo3TFWCBX6kU-84" target="jhgmRQw9Yo3TFWCBX6kU-71">
          <mxGeometry relative="1" as="geometry" />
        </mxCell>
        <mxCell id="jhgmRQw9Yo3TFWCBX6kU-83" style="edgeStyle=none;html=1;endArrow=none;endFill=0;" edge="1" parent="1" source="jhgmRQw9Yo3TFWCBX6kU-84" target="jhgmRQw9Yo3TFWCBX6kU-70">
          <mxGeometry relative="1" as="geometry" />
        </mxCell>
        <mxCell id="jhgmRQw9Yo3TFWCBX6kU-89" style="edgeStyle=none;html=1;endArrow=none;endFill=0;entryX=0.5;entryY=0;entryDx=0;entryDy=0;" edge="1" parent="1" source="jhgmRQw9Yo3TFWCBX6kU-69" target="jhgmRQw9Yo3TFWCBX6kU-87">
          <mxGeometry relative="1" as="geometry">
            <mxPoint x="700" y="70" as="sourcePoint" />
            <mxPoint x="752" y="122" as="targetPoint" />
          </mxGeometry>
        </mxCell>
      </root>
    </mxGraphModel>
  </diagram>
  <diagram id="T-NFlT0KaKFG3S1YzKbj" name="ArbolAvl">
    <mxGraphModel dx="1181" dy="769" grid="1" gridSize="10" guides="1" tooltips="1" connect="1" arrows="1" fold="1" page="1" pageScale="1" pageWidth="1100" pageHeight="850" math="0" shadow="0">
      <root>
        <mxCell id="0" />
        <mxCell id="1" parent="0" />
        <mxCell id="AsA0IZtd-86ldSy1f_KX-1" value="ARBOL AVL, con info ciudades" style="swimlane;whiteSpace=wrap;html=1;shadow=0;labelBackgroundColor=none;rounded=0;gradientColor=none;swimlaneFillColor=default;" parent="1" vertex="1">
          <mxGeometry x="43.75" y="10" width="1016.25" height="510" as="geometry" />
        </mxCell>
        <mxCell id="5MJ4uqOrB6V0u97CGc1s-40" style="edgeStyle=none;html=1;endArrow=none;endFill=0;" parent="1" source="5MJ4uqOrB6V0u97CGc1s-1" target="5MJ4uqOrB6V0u97CGc1s-33" edge="1">
          <mxGeometry relative="1" as="geometry" />
        </mxCell>
        <mxCell id="5MJ4uqOrB6V0u97CGc1s-41" style="edgeStyle=none;html=1;endArrow=none;endFill=0;" parent="1" source="5MJ4uqOrB6V0u97CGc1s-1" target="5MJ4uqOrB6V0u97CGc1s-32" edge="1">
          <mxGeometry relative="1" as="geometry" />
        </mxCell>
        <mxCell id="5MJ4uqOrB6V0u97CGc1s-1" value="5000" style="ellipse;whiteSpace=wrap;html=1;aspect=fixed;" parent="1" vertex="1">
          <mxGeometry x="390" y="40" width="40" height="40" as="geometry" />
        </mxCell>
        <mxCell id="5MJ4uqOrB6V0u97CGc1s-2" value="A" style="ellipse;whiteSpace=wrap;html=1;aspect=fixed;" parent="1" vertex="1">
          <mxGeometry x="690" y="260" width="40" height="40" as="geometry" />
        </mxCell>
        <mxCell id="5MJ4uqOrB6V0u97CGc1s-3" value="A" style="ellipse;whiteSpace=wrap;html=1;aspect=fixed;" parent="1" vertex="1">
          <mxGeometry x="690" y="260" width="40" height="40" as="geometry" />
        </mxCell>
        <mxCell id="5MJ4uqOrB6V0u97CGc1s-4" value="A" style="ellipse;whiteSpace=wrap;html=1;aspect=fixed;" parent="1" vertex="1">
          <mxGeometry x="690" y="260" width="40" height="40" as="geometry" />
        </mxCell>
        <mxCell id="5MJ4uqOrB6V0u97CGc1s-5" value="A" style="ellipse;whiteSpace=wrap;html=1;aspect=fixed;" parent="1" vertex="1">
          <mxGeometry x="690" y="260" width="40" height="40" as="geometry" />
        </mxCell>
        <mxCell id="5MJ4uqOrB6V0u97CGc1s-6" value="A" style="ellipse;whiteSpace=wrap;html=1;aspect=fixed;" parent="1" vertex="1">
          <mxGeometry x="690" y="260" width="40" height="40" as="geometry" />
        </mxCell>
        <mxCell id="5MJ4uqOrB6V0u97CGc1s-7" value="A" style="ellipse;whiteSpace=wrap;html=1;aspect=fixed;" parent="1" vertex="1">
          <mxGeometry x="690" y="260" width="40" height="40" as="geometry" />
        </mxCell>
        <mxCell id="5MJ4uqOrB6V0u97CGc1s-8" value="A" style="ellipse;whiteSpace=wrap;html=1;aspect=fixed;" parent="1" vertex="1">
          <mxGeometry x="690" y="260" width="40" height="40" as="geometry" />
        </mxCell>
        <mxCell id="5MJ4uqOrB6V0u97CGc1s-9" value="A" style="ellipse;whiteSpace=wrap;html=1;aspect=fixed;" parent="1" vertex="1">
          <mxGeometry x="690" y="260" width="40" height="40" as="geometry" />
        </mxCell>
        <mxCell id="5MJ4uqOrB6V0u97CGc1s-10" value="A" style="ellipse;whiteSpace=wrap;html=1;aspect=fixed;" parent="1" vertex="1">
          <mxGeometry x="690" y="260" width="40" height="40" as="geometry" />
        </mxCell>
        <mxCell id="5MJ4uqOrB6V0u97CGc1s-11" value="A" style="ellipse;whiteSpace=wrap;html=1;aspect=fixed;" parent="1" vertex="1">
          <mxGeometry x="690" y="260" width="40" height="40" as="geometry" />
        </mxCell>
        <mxCell id="5MJ4uqOrB6V0u97CGc1s-12" value="A" style="ellipse;whiteSpace=wrap;html=1;aspect=fixed;" parent="1" vertex="1">
          <mxGeometry x="690" y="260" width="40" height="40" as="geometry" />
        </mxCell>
        <mxCell id="5MJ4uqOrB6V0u97CGc1s-13" value="A" style="ellipse;whiteSpace=wrap;html=1;aspect=fixed;" parent="1" vertex="1">
          <mxGeometry x="690" y="260" width="40" height="40" as="geometry" />
        </mxCell>
        <mxCell id="5MJ4uqOrB6V0u97CGc1s-14" value="A" style="ellipse;whiteSpace=wrap;html=1;aspect=fixed;" parent="1" vertex="1">
          <mxGeometry x="690" y="260" width="40" height="40" as="geometry" />
        </mxCell>
        <mxCell id="5MJ4uqOrB6V0u97CGc1s-60" style="edgeStyle=none;html=1;endArrow=none;endFill=0;" parent="1" source="5MJ4uqOrB6V0u97CGc1s-15" target="5MJ4uqOrB6V0u97CGc1s-59" edge="1">
          <mxGeometry relative="1" as="geometry" />
        </mxCell>
        <mxCell id="5MJ4uqOrB6V0u97CGc1s-61" style="edgeStyle=none;html=1;endArrow=none;endFill=0;" parent="1" source="5MJ4uqOrB6V0u97CGc1s-15" target="5MJ4uqOrB6V0u97CGc1s-58" edge="1">
          <mxGeometry relative="1" as="geometry" />
        </mxCell>
        <mxCell id="5MJ4uqOrB6V0u97CGc1s-15" value="8500" style="ellipse;whiteSpace=wrap;html=1;aspect=fixed;" parent="1" vertex="1">
          <mxGeometry x="690" y="260" width="40" height="40" as="geometry" />
        </mxCell>
        <mxCell id="5MJ4uqOrB6V0u97CGc1s-16" value="5700" style="ellipse;whiteSpace=wrap;html=1;aspect=fixed;" parent="1" vertex="1">
          <mxGeometry x="570" y="340" width="40" height="40" as="geometry" />
        </mxCell>
        <mxCell id="5MJ4uqOrB6V0u97CGc1s-54" style="edgeStyle=none;html=1;endArrow=none;endFill=0;" parent="1" source="5MJ4uqOrB6V0u97CGc1s-17" target="5MJ4uqOrB6V0u97CGc1s-16" edge="1">
          <mxGeometry relative="1" as="geometry" />
        </mxCell>
        <mxCell id="5MJ4uqOrB6V0u97CGc1s-17" value="5500" style="ellipse;whiteSpace=wrap;html=1;aspect=fixed;" parent="1" vertex="1">
          <mxGeometry x="540" y="260" width="40" height="40" as="geometry" />
        </mxCell>
        <mxCell id="5MJ4uqOrB6V0u97CGc1s-18" value="5300" style="ellipse;whiteSpace=wrap;html=1;aspect=fixed;" parent="1" vertex="1">
          <mxGeometry x="460" y="260" width="40" height="40" as="geometry" />
        </mxCell>
        <mxCell id="5MJ4uqOrB6V0u97CGc1s-55" style="edgeStyle=none;html=1;endArrow=none;endFill=0;" parent="1" source="5MJ4uqOrB6V0u97CGc1s-19" target="5MJ4uqOrB6V0u97CGc1s-15" edge="1">
          <mxGeometry relative="1" as="geometry" />
        </mxCell>
        <mxCell id="5MJ4uqOrB6V0u97CGc1s-57" style="edgeStyle=none;html=1;endArrow=none;endFill=0;" parent="1" source="5MJ4uqOrB6V0u97CGc1s-19" target="5MJ4uqOrB6V0u97CGc1s-56" edge="1">
          <mxGeometry relative="1" as="geometry" />
        </mxCell>
        <mxCell id="5MJ4uqOrB6V0u97CGc1s-19" value="9103" style="ellipse;whiteSpace=wrap;html=1;aspect=fixed;" parent="1" vertex="1">
          <mxGeometry x="730" y="190" width="40" height="40" as="geometry" />
        </mxCell>
        <mxCell id="5MJ4uqOrB6V0u97CGc1s-51" style="edgeStyle=none;html=1;endArrow=none;endFill=0;" parent="1" source="5MJ4uqOrB6V0u97CGc1s-20" target="5MJ4uqOrB6V0u97CGc1s-18" edge="1">
          <mxGeometry relative="1" as="geometry" />
        </mxCell>
        <mxCell id="5MJ4uqOrB6V0u97CGc1s-52" style="edgeStyle=none;html=1;endArrow=none;endFill=0;" parent="1" source="5MJ4uqOrB6V0u97CGc1s-20" target="5MJ4uqOrB6V0u97CGc1s-17" edge="1">
          <mxGeometry relative="1" as="geometry" />
        </mxCell>
        <mxCell id="5MJ4uqOrB6V0u97CGc1s-20" value="5400" style="ellipse;whiteSpace=wrap;html=1;aspect=fixed;" parent="1" vertex="1">
          <mxGeometry x="510" y="190" width="40" height="40" as="geometry" />
        </mxCell>
        <mxCell id="5MJ4uqOrB6V0u97CGc1s-21" value="4700" style="ellipse;whiteSpace=wrap;html=1;aspect=fixed;" parent="1" vertex="1">
          <mxGeometry x="420" y="340" width="40" height="40" as="geometry" />
        </mxCell>
        <mxCell id="5MJ4uqOrB6V0u97CGc1s-22" value="4400" style="ellipse;whiteSpace=wrap;html=1;aspect=fixed;" parent="1" vertex="1">
          <mxGeometry x="350" y="340" width="40" height="40" as="geometry" />
        </mxCell>
        <mxCell id="5MJ4uqOrB6V0u97CGc1s-23" value="4000" style="ellipse;whiteSpace=wrap;html=1;aspect=fixed;" parent="1" vertex="1">
          <mxGeometry x="290" y="340" width="40" height="40" as="geometry" />
        </mxCell>
        <mxCell id="5MJ4uqOrB6V0u97CGc1s-46" style="edgeStyle=none;html=1;endArrow=none;endFill=0;" parent="1" source="5MJ4uqOrB6V0u97CGc1s-24" target="5MJ4uqOrB6V0u97CGc1s-22" edge="1">
          <mxGeometry relative="1" as="geometry" />
        </mxCell>
        <mxCell id="5MJ4uqOrB6V0u97CGc1s-47" style="edgeStyle=none;html=1;endArrow=none;endFill=0;" parent="1" source="5MJ4uqOrB6V0u97CGc1s-24" target="5MJ4uqOrB6V0u97CGc1s-21" edge="1">
          <mxGeometry relative="1" as="geometry" />
        </mxCell>
        <mxCell id="5MJ4uqOrB6V0u97CGc1s-24" value="4600" style="ellipse;whiteSpace=wrap;html=1;aspect=fixed;" parent="1" vertex="1">
          <mxGeometry x="380" y="260" width="40" height="40" as="geometry" />
        </mxCell>
        <mxCell id="5MJ4uqOrB6V0u97CGc1s-45" style="edgeStyle=none;html=1;endArrow=none;endFill=0;" parent="1" source="5MJ4uqOrB6V0u97CGc1s-25" target="5MJ4uqOrB6V0u97CGc1s-23" edge="1">
          <mxGeometry relative="1" as="geometry" />
        </mxCell>
        <mxCell id="5MJ4uqOrB6V0u97CGc1s-25" value="3600" style="ellipse;whiteSpace=wrap;html=1;aspect=fixed;" parent="1" vertex="1">
          <mxGeometry x="260" y="260" width="40" height="40" as="geometry" />
        </mxCell>
        <mxCell id="5MJ4uqOrB6V0u97CGc1s-26" value="3300" style="ellipse;whiteSpace=wrap;html=1;aspect=fixed;" parent="1" vertex="1">
          <mxGeometry x="170" y="340" width="40" height="40" as="geometry" />
        </mxCell>
        <mxCell id="5MJ4uqOrB6V0u97CGc1s-27" value="3000" style="ellipse;whiteSpace=wrap;html=1;aspect=fixed;" parent="1" vertex="1">
          <mxGeometry x="100" y="340" width="40" height="40" as="geometry" />
        </mxCell>
        <mxCell id="5MJ4uqOrB6V0u97CGc1s-42" style="edgeStyle=none;html=1;endArrow=none;endFill=0;" parent="1" source="5MJ4uqOrB6V0u97CGc1s-28" target="5MJ4uqOrB6V0u97CGc1s-26" edge="1">
          <mxGeometry relative="1" as="geometry" />
        </mxCell>
        <mxCell id="5MJ4uqOrB6V0u97CGc1s-28" value="3400" style="ellipse;whiteSpace=wrap;html=1;aspect=fixed;" parent="1" vertex="1">
          <mxGeometry x="200" y="260" width="40" height="40" as="geometry" />
        </mxCell>
        <mxCell id="5MJ4uqOrB6V0u97CGc1s-34" style="edgeStyle=none;html=1;entryX=0.5;entryY=0.25;entryDx=0;entryDy=0;entryPerimeter=0;endArrow=none;endFill=0;" parent="1" source="5MJ4uqOrB6V0u97CGc1s-29" target="5MJ4uqOrB6V0u97CGc1s-27" edge="1">
          <mxGeometry relative="1" as="geometry" />
        </mxCell>
        <mxCell id="5MJ4uqOrB6V0u97CGc1s-29" value="1000" style="ellipse;whiteSpace=wrap;html=1;aspect=fixed;" parent="1" vertex="1">
          <mxGeometry x="70" y="260" width="40" height="40" as="geometry" />
        </mxCell>
        <mxCell id="5MJ4uqOrB6V0u97CGc1s-43" style="edgeStyle=none;html=1;endArrow=none;endFill=0;" parent="1" source="5MJ4uqOrB6V0u97CGc1s-30" target="5MJ4uqOrB6V0u97CGc1s-25" edge="1">
          <mxGeometry relative="1" as="geometry" />
        </mxCell>
        <mxCell id="5MJ4uqOrB6V0u97CGc1s-44" style="edgeStyle=none;html=1;endArrow=none;endFill=0;" parent="1" source="5MJ4uqOrB6V0u97CGc1s-30" target="5MJ4uqOrB6V0u97CGc1s-24" edge="1">
          <mxGeometry relative="1" as="geometry" />
        </mxCell>
        <mxCell id="5MJ4uqOrB6V0u97CGc1s-30" value="4200" style="ellipse;whiteSpace=wrap;html=1;aspect=fixed;" parent="1" vertex="1">
          <mxGeometry x="310" y="190" width="40" height="40" as="geometry" />
        </mxCell>
        <mxCell id="5MJ4uqOrB6V0u97CGc1s-35" style="edgeStyle=none;html=1;endArrow=none;endFill=0;" parent="1" source="5MJ4uqOrB6V0u97CGc1s-31" target="5MJ4uqOrB6V0u97CGc1s-29" edge="1">
          <mxGeometry relative="1" as="geometry" />
        </mxCell>
        <mxCell id="5MJ4uqOrB6V0u97CGc1s-36" style="edgeStyle=none;html=1;endArrow=none;endFill=0;" parent="1" source="5MJ4uqOrB6V0u97CGc1s-31" target="5MJ4uqOrB6V0u97CGc1s-28" edge="1">
          <mxGeometry relative="1" as="geometry" />
        </mxCell>
        <mxCell id="5MJ4uqOrB6V0u97CGc1s-31" value="3100" style="ellipse;whiteSpace=wrap;html=1;aspect=fixed;" parent="1" vertex="1">
          <mxGeometry x="130" y="190" width="40" height="40" as="geometry" />
        </mxCell>
        <mxCell id="5MJ4uqOrB6V0u97CGc1s-49" style="edgeStyle=none;html=1;endArrow=none;endFill=0;" parent="1" source="5MJ4uqOrB6V0u97CGc1s-32" target="5MJ4uqOrB6V0u97CGc1s-19" edge="1">
          <mxGeometry relative="1" as="geometry" />
        </mxCell>
        <mxCell id="5MJ4uqOrB6V0u97CGc1s-50" style="edgeStyle=none;html=1;endArrow=none;endFill=0;" parent="1" source="5MJ4uqOrB6V0u97CGc1s-32" target="5MJ4uqOrB6V0u97CGc1s-20" edge="1">
          <mxGeometry relative="1" as="geometry" />
        </mxCell>
        <mxCell id="5MJ4uqOrB6V0u97CGc1s-32" value="6300" style="ellipse;whiteSpace=wrap;html=1;aspect=fixed;" parent="1" vertex="1">
          <mxGeometry x="560" y="120" width="40" height="40" as="geometry" />
        </mxCell>
        <mxCell id="5MJ4uqOrB6V0u97CGc1s-37" style="edgeStyle=none;html=1;endArrow=none;endFill=0;" parent="1" source="5MJ4uqOrB6V0u97CGc1s-33" target="5MJ4uqOrB6V0u97CGc1s-31" edge="1">
          <mxGeometry relative="1" as="geometry" />
        </mxCell>
        <mxCell id="5MJ4uqOrB6V0u97CGc1s-38" style="edgeStyle=none;html=1;endArrow=none;endFill=0;" parent="1" source="5MJ4uqOrB6V0u97CGc1s-33" target="5MJ4uqOrB6V0u97CGc1s-30" edge="1">
          <mxGeometry relative="1" as="geometry" />
        </mxCell>
        <mxCell id="5MJ4uqOrB6V0u97CGc1s-33" value="3500" style="ellipse;whiteSpace=wrap;html=1;aspect=fixed;" parent="1" vertex="1">
          <mxGeometry x="230" y="120" width="40" height="40" as="geometry" />
        </mxCell>
        <mxCell id="5MJ4uqOrB6V0u97CGc1s-74" style="edgeStyle=none;html=1;entryX=0.5;entryY=0;entryDx=0;entryDy=0;endArrow=none;endFill=0;" parent="1" source="5MJ4uqOrB6V0u97CGc1s-56" target="5MJ4uqOrB6V0u97CGc1s-69" edge="1">
          <mxGeometry relative="1" as="geometry" />
        </mxCell>
        <mxCell id="5MJ4uqOrB6V0u97CGc1s-75" style="edgeStyle=none;html=1;endArrow=none;endFill=0;" parent="1" source="5MJ4uqOrB6V0u97CGc1s-56" target="5MJ4uqOrB6V0u97CGc1s-70" edge="1">
          <mxGeometry relative="1" as="geometry" />
        </mxCell>
        <mxCell id="5MJ4uqOrB6V0u97CGc1s-56" value="9400" style="ellipse;whiteSpace=wrap;html=1;aspect=fixed;" parent="1" vertex="1">
          <mxGeometry x="910" y="260" width="40" height="40" as="geometry" />
        </mxCell>
        <mxCell id="5MJ4uqOrB6V0u97CGc1s-68" style="edgeStyle=none;html=1;endArrow=none;endFill=0;" parent="1" source="5MJ4uqOrB6V0u97CGc1s-58" target="5MJ4uqOrB6V0u97CGc1s-66" edge="1">
          <mxGeometry relative="1" as="geometry" />
        </mxCell>
        <mxCell id="5MJ4uqOrB6V0u97CGc1s-58" value="9040" style="ellipse;whiteSpace=wrap;html=1;aspect=fixed;" parent="1" vertex="1">
          <mxGeometry x="760" y="340" width="40" height="40" as="geometry" />
        </mxCell>
        <mxCell id="5MJ4uqOrB6V0u97CGc1s-64" style="edgeStyle=none;html=1;endArrow=none;endFill=0;" parent="1" source="5MJ4uqOrB6V0u97CGc1s-59" target="5MJ4uqOrB6V0u97CGc1s-62" edge="1">
          <mxGeometry relative="1" as="geometry" />
        </mxCell>
        <mxCell id="5MJ4uqOrB6V0u97CGc1s-65" style="edgeStyle=none;html=1;endArrow=none;endFill=0;" parent="1" source="5MJ4uqOrB6V0u97CGc1s-59" target="5MJ4uqOrB6V0u97CGc1s-63" edge="1">
          <mxGeometry relative="1" as="geometry" />
        </mxCell>
        <mxCell id="5MJ4uqOrB6V0u97CGc1s-59" value="8400" style="ellipse;whiteSpace=wrap;html=1;aspect=fixed;" parent="1" vertex="1">
          <mxGeometry x="650" y="340" width="40" height="40" as="geometry" />
        </mxCell>
        <mxCell id="5MJ4uqOrB6V0u97CGc1s-62" value="8300" style="ellipse;whiteSpace=wrap;html=1;aspect=fixed;" parent="1" vertex="1">
          <mxGeometry x="600" y="430" width="40" height="40" as="geometry" />
        </mxCell>
        <mxCell id="5MJ4uqOrB6V0u97CGc1s-63" value="8407" style="ellipse;whiteSpace=wrap;html=1;aspect=fixed;" parent="1" vertex="1">
          <mxGeometry x="680" y="430" width="40" height="40" as="geometry" />
        </mxCell>
        <mxCell id="5MJ4uqOrB6V0u97CGc1s-66" value="9000" style="ellipse;whiteSpace=wrap;html=1;aspect=fixed;" parent="1" vertex="1">
          <mxGeometry x="730" y="430" width="40" height="40" as="geometry" />
        </mxCell>
        <mxCell id="5MJ4uqOrB6V0u97CGc1s-69" value="9200" style="ellipse;whiteSpace=wrap;html=1;aspect=fixed;" parent="1" vertex="1">
          <mxGeometry x="890" y="340" width="40" height="40" as="geometry" />
        </mxCell>
        <mxCell id="5MJ4uqOrB6V0u97CGc1s-76" style="edgeStyle=none;html=1;endArrow=none;endFill=0;" parent="1" source="5MJ4uqOrB6V0u97CGc1s-70" target="5MJ4uqOrB6V0u97CGc1s-71" edge="1">
          <mxGeometry relative="1" as="geometry" />
        </mxCell>
        <mxCell id="5MJ4uqOrB6V0u97CGc1s-77" style="edgeStyle=none;html=1;endArrow=none;endFill=0;" parent="1" source="5MJ4uqOrB6V0u97CGc1s-70" target="5MJ4uqOrB6V0u97CGc1s-72" edge="1">
          <mxGeometry relative="1" as="geometry" />
        </mxCell>
        <mxCell id="5MJ4uqOrB6V0u97CGc1s-70" value="9410" style="ellipse;whiteSpace=wrap;html=1;aspect=fixed;" parent="1" vertex="1">
          <mxGeometry x="960" y="340" width="40" height="40" as="geometry" />
        </mxCell>
        <mxCell id="5MJ4uqOrB6V0u97CGc1s-71" value="9405" style="ellipse;whiteSpace=wrap;html=1;aspect=fixed;" parent="1" vertex="1">
          <mxGeometry x="930" y="420" width="40" height="40" as="geometry" />
        </mxCell>
        <mxCell id="5MJ4uqOrB6V0u97CGc1s-72" value="9420" style="ellipse;whiteSpace=wrap;html=1;aspect=fixed;" parent="1" vertex="1">
          <mxGeometry x="990" y="420" width="40" height="40" as="geometry" />
        </mxCell>
        <mxCell id="Z8tJJy5vMytfQh58pZOS-1" value="Rotaciones dobles&lt;br&gt;1- Agregar nodo 9406 [DI]&lt;br&gt;2- Quitar nodo 9000 y agregar 8405 [ID]" style="text;html=1;align=left;verticalAlign=middle;resizable=0;points=[];autosize=1;strokeColor=none;fillColor=none;" vertex="1" parent="1">
          <mxGeometry x="15" y="545" width="240" height="60" as="geometry" />
        </mxCell>
        <mxCell id="Z8tJJy5vMytfQh58pZOS-8" style="edgeStyle=none;html=1;entryX=0.5;entryY=0;entryDx=0;entryDy=0;endArrow=none;endFill=0;" edge="1" parent="1" source="Z8tJJy5vMytfQh58pZOS-10" target="Z8tJJy5vMytfQh58pZOS-11">
          <mxGeometry relative="1" as="geometry" />
        </mxCell>
        <mxCell id="Z8tJJy5vMytfQh58pZOS-9" style="edgeStyle=none;html=1;endArrow=none;endFill=0;" edge="1" parent="1" source="Z8tJJy5vMytfQh58pZOS-10" target="Z8tJJy5vMytfQh58pZOS-14">
          <mxGeometry relative="1" as="geometry" />
        </mxCell>
        <mxCell id="Z8tJJy5vMytfQh58pZOS-10" value="9400" style="ellipse;whiteSpace=wrap;html=1;aspect=fixed;" vertex="1" parent="1">
          <mxGeometry x="360" y="560" width="40" height="40" as="geometry" />
        </mxCell>
        <mxCell id="Z8tJJy5vMytfQh58pZOS-11" value="9200" style="ellipse;whiteSpace=wrap;html=1;aspect=fixed;" vertex="1" parent="1">
          <mxGeometry x="320" y="640" width="40" height="40" as="geometry" />
        </mxCell>
        <mxCell id="Z8tJJy5vMytfQh58pZOS-12" style="edgeStyle=none;html=1;endArrow=none;endFill=0;" edge="1" parent="1" source="Z8tJJy5vMytfQh58pZOS-14" target="Z8tJJy5vMytfQh58pZOS-15">
          <mxGeometry relative="1" as="geometry" />
        </mxCell>
        <mxCell id="Z8tJJy5vMytfQh58pZOS-13" style="edgeStyle=none;html=1;endArrow=none;endFill=0;" edge="1" parent="1" source="Z8tJJy5vMytfQh58pZOS-14" target="Z8tJJy5vMytfQh58pZOS-16">
          <mxGeometry relative="1" as="geometry" />
        </mxCell>
        <mxCell id="Z8tJJy5vMytfQh58pZOS-14" value="9410" style="ellipse;whiteSpace=wrap;html=1;aspect=fixed;fillColor=#008a00;fontColor=#ffffff;strokeColor=#005700;" vertex="1" parent="1">
          <mxGeometry x="410" y="640" width="40" height="40" as="geometry" />
        </mxCell>
        <mxCell id="Z8tJJy5vMytfQh58pZOS-15" value="9405" style="ellipse;whiteSpace=wrap;html=1;aspect=fixed;" vertex="1" parent="1">
          <mxGeometry x="380" y="720" width="40" height="40" as="geometry" />
        </mxCell>
        <mxCell id="Z8tJJy5vMytfQh58pZOS-16" value="9420" style="ellipse;whiteSpace=wrap;html=1;aspect=fixed;" vertex="1" parent="1">
          <mxGeometry x="440" y="720" width="40" height="40" as="geometry" />
        </mxCell>
        <mxCell id="Z8tJJy5vMytfQh58pZOS-18" style="edgeStyle=none;html=1;endArrow=none;endFill=0;" edge="1" parent="1" source="Z8tJJy5vMytfQh58pZOS-17" target="Z8tJJy5vMytfQh58pZOS-15">
          <mxGeometry relative="1" as="geometry" />
        </mxCell>
        <mxCell id="Z8tJJy5vMytfQh58pZOS-17" value="9406" style="ellipse;whiteSpace=wrap;html=1;aspect=fixed;" vertex="1" parent="1">
          <mxGeometry x="410" y="790" width="40" height="40" as="geometry" />
        </mxCell>
        <mxCell id="Z8tJJy5vMytfQh58pZOS-19" value="b=1" style="text;html=1;align=center;verticalAlign=middle;resizable=0;points=[];autosize=1;strokeColor=none;fillColor=none;" vertex="1" parent="1">
          <mxGeometry x="460" y="625" width="40" height="30" as="geometry" />
        </mxCell>
        <mxCell id="Z8tJJy5vMytfQh58pZOS-20" value="b=-2" style="text;html=1;align=center;verticalAlign=middle;resizable=0;points=[];autosize=1;strokeColor=none;fillColor=none;" vertex="1" parent="1">
          <mxGeometry x="395" y="535" width="50" height="30" as="geometry" />
        </mxCell>
        <mxCell id="Z8tJJy5vMytfQh58pZOS-21" style="edgeStyle=none;html=1;entryX=0.5;entryY=0;entryDx=0;entryDy=0;endArrow=none;endFill=0;" edge="1" parent="1" source="Z8tJJy5vMytfQh58pZOS-23" target="Z8tJJy5vMytfQh58pZOS-24">
          <mxGeometry relative="1" as="geometry" />
        </mxCell>
        <mxCell id="Z8tJJy5vMytfQh58pZOS-34" style="edgeStyle=none;html=1;endArrow=none;endFill=0;" edge="1" parent="1" source="Z8tJJy5vMytfQh58pZOS-23" target="Z8tJJy5vMytfQh58pZOS-28">
          <mxGeometry relative="1" as="geometry" />
        </mxCell>
        <mxCell id="Z8tJJy5vMytfQh58pZOS-23" value="9400" style="ellipse;whiteSpace=wrap;html=1;aspect=fixed;fillColor=#008a00;fontColor=#ffffff;strokeColor=#005700;" vertex="1" parent="1">
          <mxGeometry x="640" y="560" width="40" height="40" as="geometry" />
        </mxCell>
        <mxCell id="Z8tJJy5vMytfQh58pZOS-24" value="9200" style="ellipse;whiteSpace=wrap;html=1;aspect=fixed;" vertex="1" parent="1">
          <mxGeometry x="600" y="640" width="40" height="40" as="geometry" />
        </mxCell>
        <mxCell id="Z8tJJy5vMytfQh58pZOS-36" style="edgeStyle=none;html=1;entryX=1;entryY=0;entryDx=0;entryDy=0;endArrow=none;endFill=0;" edge="1" parent="1" source="Z8tJJy5vMytfQh58pZOS-27" target="Z8tJJy5vMytfQh58pZOS-31">
          <mxGeometry relative="1" as="geometry" />
        </mxCell>
        <mxCell id="Z8tJJy5vMytfQh58pZOS-37" style="edgeStyle=none;html=1;endArrow=none;endFill=0;" edge="1" parent="1" source="Z8tJJy5vMytfQh58pZOS-27" target="Z8tJJy5vMytfQh58pZOS-29">
          <mxGeometry relative="1" as="geometry" />
        </mxCell>
        <mxCell id="Z8tJJy5vMytfQh58pZOS-27" value="9410" style="ellipse;whiteSpace=wrap;html=1;aspect=fixed;" vertex="1" parent="1">
          <mxGeometry x="730" y="720" width="40" height="40" as="geometry" />
        </mxCell>
        <mxCell id="Z8tJJy5vMytfQh58pZOS-35" style="edgeStyle=none;html=1;endArrow=none;endFill=0;" edge="1" parent="1" source="Z8tJJy5vMytfQh58pZOS-28" target="Z8tJJy5vMytfQh58pZOS-27">
          <mxGeometry relative="1" as="geometry" />
        </mxCell>
        <mxCell id="Z8tJJy5vMytfQh58pZOS-28" value="9405" style="ellipse;whiteSpace=wrap;html=1;aspect=fixed;" vertex="1" parent="1">
          <mxGeometry x="690" y="640" width="40" height="40" as="geometry" />
        </mxCell>
        <mxCell id="Z8tJJy5vMytfQh58pZOS-29" value="9420" style="ellipse;whiteSpace=wrap;html=1;aspect=fixed;" vertex="1" parent="1">
          <mxGeometry x="760" y="790" width="40" height="40" as="geometry" />
        </mxCell>
        <mxCell id="Z8tJJy5vMytfQh58pZOS-31" value="9406" style="ellipse;whiteSpace=wrap;html=1;aspect=fixed;" vertex="1" parent="1">
          <mxGeometry x="680" y="790" width="40" height="40" as="geometry" />
        </mxCell>
        <mxCell id="Z8tJJy5vMytfQh58pZOS-33" value="" style="shape=flexArrow;endArrow=classic;html=1;" edge="1" parent="1">
          <mxGeometry width="50" height="50" relative="1" as="geometry">
            <mxPoint x="520" y="680" as="sourcePoint" />
            <mxPoint x="570" y="680" as="targetPoint" />
          </mxGeometry>
        </mxCell>
        <mxCell id="Z8tJJy5vMytfQh58pZOS-38" value="b = -2" style="text;html=1;align=center;verticalAlign=middle;resizable=0;points=[];autosize=1;strokeColor=none;fillColor=none;" vertex="1" parent="1">
          <mxGeometry x="695" y="545" width="50" height="30" as="geometry" />
        </mxCell>
        <mxCell id="Z8tJJy5vMytfQh58pZOS-40" value="" style="shape=flexArrow;endArrow=classic;html=1;" edge="1" parent="1">
          <mxGeometry width="50" height="50" relative="1" as="geometry">
            <mxPoint x="810" y="680" as="sourcePoint" />
            <mxPoint x="860" y="680" as="targetPoint" />
          </mxGeometry>
        </mxCell>
        <mxCell id="Z8tJJy5vMytfQh58pZOS-41" style="edgeStyle=none;html=1;entryX=0.5;entryY=0;entryDx=0;entryDy=0;endArrow=none;endFill=0;" edge="1" parent="1" source="Z8tJJy5vMytfQh58pZOS-43" target="Z8tJJy5vMytfQh58pZOS-44">
          <mxGeometry relative="1" as="geometry" />
        </mxCell>
        <mxCell id="Z8tJJy5vMytfQh58pZOS-42" style="edgeStyle=none;html=1;endArrow=none;endFill=0;" edge="1" parent="1" source="Z8tJJy5vMytfQh58pZOS-43" target="Z8tJJy5vMytfQh58pZOS-49">
          <mxGeometry relative="1" as="geometry" />
        </mxCell>
        <mxCell id="Z8tJJy5vMytfQh58pZOS-43" value="9400" style="ellipse;whiteSpace=wrap;html=1;aspect=fixed;" vertex="1" parent="1">
          <mxGeometry x="910" y="640" width="40" height="40" as="geometry" />
        </mxCell>
        <mxCell id="Z8tJJy5vMytfQh58pZOS-44" value="9200" style="ellipse;whiteSpace=wrap;html=1;aspect=fixed;" vertex="1" parent="1">
          <mxGeometry x="880" y="710" width="40" height="40" as="geometry" />
        </mxCell>
        <mxCell id="Z8tJJy5vMytfQh58pZOS-45" style="edgeStyle=none;html=1;entryX=1;entryY=0;entryDx=0;entryDy=0;endArrow=none;endFill=0;" edge="1" parent="1" source="Z8tJJy5vMytfQh58pZOS-47" target="Z8tJJy5vMytfQh58pZOS-51">
          <mxGeometry relative="1" as="geometry" />
        </mxCell>
        <mxCell id="Z8tJJy5vMytfQh58pZOS-46" style="edgeStyle=none;html=1;endArrow=none;endFill=0;" edge="1" parent="1" source="Z8tJJy5vMytfQh58pZOS-47" target="Z8tJJy5vMytfQh58pZOS-50">
          <mxGeometry relative="1" as="geometry" />
        </mxCell>
        <mxCell id="Z8tJJy5vMytfQh58pZOS-47" value="9410" style="ellipse;whiteSpace=wrap;html=1;aspect=fixed;" vertex="1" parent="1">
          <mxGeometry x="1000" y="640" width="40" height="40" as="geometry" />
        </mxCell>
        <mxCell id="Z8tJJy5vMytfQh58pZOS-48" style="edgeStyle=none;html=1;endArrow=none;endFill=0;" edge="1" parent="1" source="Z8tJJy5vMytfQh58pZOS-49" target="Z8tJJy5vMytfQh58pZOS-47">
          <mxGeometry relative="1" as="geometry" />
        </mxCell>
        <mxCell id="Z8tJJy5vMytfQh58pZOS-49" value="9405" style="ellipse;whiteSpace=wrap;html=1;aspect=fixed;" vertex="1" parent="1">
          <mxGeometry x="960" y="560" width="40" height="40" as="geometry" />
        </mxCell>
        <mxCell id="Z8tJJy5vMytfQh58pZOS-50" value="9420" style="ellipse;whiteSpace=wrap;html=1;aspect=fixed;" vertex="1" parent="1">
          <mxGeometry x="1040" y="710" width="40" height="40" as="geometry" />
        </mxCell>
        <mxCell id="Z8tJJy5vMytfQh58pZOS-51" value="9406" style="ellipse;whiteSpace=wrap;html=1;aspect=fixed;" vertex="1" parent="1">
          <mxGeometry x="960" y="710" width="40" height="40" as="geometry" />
        </mxCell>
        <mxCell id="Z8tJJy5vMytfQh58pZOS-52" value="b =&amp;nbsp; 0" style="text;html=1;align=center;verticalAlign=middle;resizable=0;points=[];autosize=1;strokeColor=none;fillColor=none;" vertex="1" parent="1">
          <mxGeometry x="1010" y="540" width="50" height="30" as="geometry" />
        </mxCell>
        <mxCell id="Z8tJJy5vMytfQh58pZOS-54" value="A" style="ellipse;whiteSpace=wrap;html=1;aspect=fixed;" vertex="1" parent="1">
          <mxGeometry x="109" y="880" width="40" height="40" as="geometry" />
        </mxCell>
        <mxCell id="Z8tJJy5vMytfQh58pZOS-55" value="A" style="ellipse;whiteSpace=wrap;html=1;aspect=fixed;" vertex="1" parent="1">
          <mxGeometry x="109" y="880" width="40" height="40" as="geometry" />
        </mxCell>
        <mxCell id="Z8tJJy5vMytfQh58pZOS-56" value="A" style="ellipse;whiteSpace=wrap;html=1;aspect=fixed;" vertex="1" parent="1">
          <mxGeometry x="109" y="880" width="40" height="40" as="geometry" />
        </mxCell>
        <mxCell id="Z8tJJy5vMytfQh58pZOS-57" value="A" style="ellipse;whiteSpace=wrap;html=1;aspect=fixed;" vertex="1" parent="1">
          <mxGeometry x="109" y="880" width="40" height="40" as="geometry" />
        </mxCell>
        <mxCell id="Z8tJJy5vMytfQh58pZOS-58" value="A" style="ellipse;whiteSpace=wrap;html=1;aspect=fixed;" vertex="1" parent="1">
          <mxGeometry x="109" y="880" width="40" height="40" as="geometry" />
        </mxCell>
        <mxCell id="Z8tJJy5vMytfQh58pZOS-59" value="A" style="ellipse;whiteSpace=wrap;html=1;aspect=fixed;" vertex="1" parent="1">
          <mxGeometry x="109" y="880" width="40" height="40" as="geometry" />
        </mxCell>
        <mxCell id="Z8tJJy5vMytfQh58pZOS-60" value="A" style="ellipse;whiteSpace=wrap;html=1;aspect=fixed;" vertex="1" parent="1">
          <mxGeometry x="109" y="880" width="40" height="40" as="geometry" />
        </mxCell>
        <mxCell id="Z8tJJy5vMytfQh58pZOS-61" value="A" style="ellipse;whiteSpace=wrap;html=1;aspect=fixed;" vertex="1" parent="1">
          <mxGeometry x="109" y="880" width="40" height="40" as="geometry" />
        </mxCell>
        <mxCell id="Z8tJJy5vMytfQh58pZOS-62" value="A" style="ellipse;whiteSpace=wrap;html=1;aspect=fixed;" vertex="1" parent="1">
          <mxGeometry x="109" y="880" width="40" height="40" as="geometry" />
        </mxCell>
        <mxCell id="Z8tJJy5vMytfQh58pZOS-63" value="A" style="ellipse;whiteSpace=wrap;html=1;aspect=fixed;" vertex="1" parent="1">
          <mxGeometry x="109" y="880" width="40" height="40" as="geometry" />
        </mxCell>
        <mxCell id="Z8tJJy5vMytfQh58pZOS-64" value="A" style="ellipse;whiteSpace=wrap;html=1;aspect=fixed;" vertex="1" parent="1">
          <mxGeometry x="109" y="880" width="40" height="40" as="geometry" />
        </mxCell>
        <mxCell id="Z8tJJy5vMytfQh58pZOS-65" value="A" style="ellipse;whiteSpace=wrap;html=1;aspect=fixed;" vertex="1" parent="1">
          <mxGeometry x="109" y="880" width="40" height="40" as="geometry" />
        </mxCell>
        <mxCell id="Z8tJJy5vMytfQh58pZOS-66" value="A" style="ellipse;whiteSpace=wrap;html=1;aspect=fixed;" vertex="1" parent="1">
          <mxGeometry x="109" y="880" width="40" height="40" as="geometry" />
        </mxCell>
        <mxCell id="Z8tJJy5vMytfQh58pZOS-67" style="edgeStyle=none;html=1;endArrow=none;endFill=0;" edge="1" parent="1" source="Z8tJJy5vMytfQh58pZOS-69" target="Z8tJJy5vMytfQh58pZOS-74">
          <mxGeometry relative="1" as="geometry" />
        </mxCell>
        <mxCell id="Z8tJJy5vMytfQh58pZOS-68" style="edgeStyle=none;html=1;endArrow=none;endFill=0;" edge="1" parent="1" source="Z8tJJy5vMytfQh58pZOS-69" target="Z8tJJy5vMytfQh58pZOS-71">
          <mxGeometry relative="1" as="geometry" />
        </mxCell>
        <mxCell id="Z8tJJy5vMytfQh58pZOS-69" value="8500" style="ellipse;whiteSpace=wrap;html=1;aspect=fixed;" vertex="1" parent="1">
          <mxGeometry x="109" y="880" width="40" height="40" as="geometry" />
        </mxCell>
        <mxCell id="Z8tJJy5vMytfQh58pZOS-70" style="edgeStyle=none;html=1;endArrow=none;endFill=0;" edge="1" parent="1" source="Z8tJJy5vMytfQh58pZOS-71" target="Z8tJJy5vMytfQh58pZOS-77">
          <mxGeometry relative="1" as="geometry" />
        </mxCell>
        <mxCell id="Z8tJJy5vMytfQh58pZOS-71" value="9040" style="ellipse;whiteSpace=wrap;html=1;aspect=fixed;" vertex="1" parent="1">
          <mxGeometry x="179" y="960" width="40" height="40" as="geometry" />
        </mxCell>
        <mxCell id="Z8tJJy5vMytfQh58pZOS-72" style="edgeStyle=none;html=1;endArrow=none;endFill=0;" edge="1" parent="1" source="Z8tJJy5vMytfQh58pZOS-74" target="Z8tJJy5vMytfQh58pZOS-75">
          <mxGeometry relative="1" as="geometry" />
        </mxCell>
        <mxCell id="Z8tJJy5vMytfQh58pZOS-73" style="edgeStyle=none;html=1;endArrow=none;endFill=0;" edge="1" parent="1" source="Z8tJJy5vMytfQh58pZOS-74" target="Z8tJJy5vMytfQh58pZOS-76">
          <mxGeometry relative="1" as="geometry" />
        </mxCell>
        <mxCell id="Z8tJJy5vMytfQh58pZOS-74" value="8400" style="ellipse;whiteSpace=wrap;html=1;aspect=fixed;" vertex="1" parent="1">
          <mxGeometry x="69" y="960" width="40" height="40" as="geometry" />
        </mxCell>
        <mxCell id="Z8tJJy5vMytfQh58pZOS-75" value="8300" style="ellipse;whiteSpace=wrap;html=1;aspect=fixed;" vertex="1" parent="1">
          <mxGeometry x="19" y="1050" width="40" height="40" as="geometry" />
        </mxCell>
        <mxCell id="Z8tJJy5vMytfQh58pZOS-76" value="8407" style="ellipse;whiteSpace=wrap;html=1;aspect=fixed;" vertex="1" parent="1">
          <mxGeometry x="99" y="1050" width="40" height="40" as="geometry" />
        </mxCell>
        <mxCell id="Z8tJJy5vMytfQh58pZOS-77" value="9000" style="ellipse;whiteSpace=wrap;html=1;aspect=fixed;fillColor=#a20025;fontColor=#ffffff;strokeColor=#6F0000;" vertex="1" parent="1">
          <mxGeometry x="149" y="1050" width="40" height="40" as="geometry" />
        </mxCell>
        <mxCell id="Z8tJJy5vMytfQh58pZOS-78" value="A" style="ellipse;whiteSpace=wrap;html=1;aspect=fixed;" vertex="1" parent="1">
          <mxGeometry x="399" y="880" width="40" height="40" as="geometry" />
        </mxCell>
        <mxCell id="Z8tJJy5vMytfQh58pZOS-79" value="A" style="ellipse;whiteSpace=wrap;html=1;aspect=fixed;" vertex="1" parent="1">
          <mxGeometry x="399" y="880" width="40" height="40" as="geometry" />
        </mxCell>
        <mxCell id="Z8tJJy5vMytfQh58pZOS-80" value="A" style="ellipse;whiteSpace=wrap;html=1;aspect=fixed;" vertex="1" parent="1">
          <mxGeometry x="399" y="880" width="40" height="40" as="geometry" />
        </mxCell>
        <mxCell id="Z8tJJy5vMytfQh58pZOS-81" value="A" style="ellipse;whiteSpace=wrap;html=1;aspect=fixed;" vertex="1" parent="1">
          <mxGeometry x="399" y="880" width="40" height="40" as="geometry" />
        </mxCell>
        <mxCell id="Z8tJJy5vMytfQh58pZOS-82" value="A" style="ellipse;whiteSpace=wrap;html=1;aspect=fixed;" vertex="1" parent="1">
          <mxGeometry x="399" y="880" width="40" height="40" as="geometry" />
        </mxCell>
        <mxCell id="Z8tJJy5vMytfQh58pZOS-83" value="A" style="ellipse;whiteSpace=wrap;html=1;aspect=fixed;" vertex="1" parent="1">
          <mxGeometry x="399" y="880" width="40" height="40" as="geometry" />
        </mxCell>
        <mxCell id="Z8tJJy5vMytfQh58pZOS-84" value="A" style="ellipse;whiteSpace=wrap;html=1;aspect=fixed;" vertex="1" parent="1">
          <mxGeometry x="399" y="880" width="40" height="40" as="geometry" />
        </mxCell>
        <mxCell id="Z8tJJy5vMytfQh58pZOS-85" value="A" style="ellipse;whiteSpace=wrap;html=1;aspect=fixed;" vertex="1" parent="1">
          <mxGeometry x="399" y="880" width="40" height="40" as="geometry" />
        </mxCell>
        <mxCell id="Z8tJJy5vMytfQh58pZOS-86" value="A" style="ellipse;whiteSpace=wrap;html=1;aspect=fixed;" vertex="1" parent="1">
          <mxGeometry x="399" y="880" width="40" height="40" as="geometry" />
        </mxCell>
        <mxCell id="Z8tJJy5vMytfQh58pZOS-87" value="A" style="ellipse;whiteSpace=wrap;html=1;aspect=fixed;" vertex="1" parent="1">
          <mxGeometry x="399" y="880" width="40" height="40" as="geometry" />
        </mxCell>
        <mxCell id="Z8tJJy5vMytfQh58pZOS-88" value="A" style="ellipse;whiteSpace=wrap;html=1;aspect=fixed;" vertex="1" parent="1">
          <mxGeometry x="399" y="880" width="40" height="40" as="geometry" />
        </mxCell>
        <mxCell id="Z8tJJy5vMytfQh58pZOS-89" value="A" style="ellipse;whiteSpace=wrap;html=1;aspect=fixed;" vertex="1" parent="1">
          <mxGeometry x="399" y="880" width="40" height="40" as="geometry" />
        </mxCell>
        <mxCell id="Z8tJJy5vMytfQh58pZOS-90" value="A" style="ellipse;whiteSpace=wrap;html=1;aspect=fixed;" vertex="1" parent="1">
          <mxGeometry x="399" y="880" width="40" height="40" as="geometry" />
        </mxCell>
        <mxCell id="Z8tJJy5vMytfQh58pZOS-91" style="edgeStyle=none;html=1;endArrow=none;endFill=0;" edge="1" parent="1" source="Z8tJJy5vMytfQh58pZOS-93" target="Z8tJJy5vMytfQh58pZOS-98">
          <mxGeometry relative="1" as="geometry" />
        </mxCell>
        <mxCell id="Z8tJJy5vMytfQh58pZOS-92" style="edgeStyle=none;html=1;endArrow=none;endFill=0;" edge="1" parent="1" source="Z8tJJy5vMytfQh58pZOS-93" target="Z8tJJy5vMytfQh58pZOS-95">
          <mxGeometry relative="1" as="geometry" />
        </mxCell>
        <mxCell id="Z8tJJy5vMytfQh58pZOS-93" value="8500" style="ellipse;whiteSpace=wrap;html=1;aspect=fixed;" vertex="1" parent="1">
          <mxGeometry x="399" y="880" width="40" height="40" as="geometry" />
        </mxCell>
        <mxCell id="Z8tJJy5vMytfQh58pZOS-95" value="9040" style="ellipse;whiteSpace=wrap;html=1;aspect=fixed;" vertex="1" parent="1">
          <mxGeometry x="444" y="960" width="40" height="40" as="geometry" />
        </mxCell>
        <mxCell id="Z8tJJy5vMytfQh58pZOS-96" style="edgeStyle=none;html=1;endArrow=none;endFill=0;" edge="1" parent="1" source="Z8tJJy5vMytfQh58pZOS-98" target="Z8tJJy5vMytfQh58pZOS-99">
          <mxGeometry relative="1" as="geometry" />
        </mxCell>
        <mxCell id="Z8tJJy5vMytfQh58pZOS-97" style="edgeStyle=none;html=1;endArrow=none;endFill=0;" edge="1" parent="1" source="Z8tJJy5vMytfQh58pZOS-98" target="Z8tJJy5vMytfQh58pZOS-100">
          <mxGeometry relative="1" as="geometry" />
        </mxCell>
        <mxCell id="Z8tJJy5vMytfQh58pZOS-98" value="8400" style="ellipse;whiteSpace=wrap;html=1;aspect=fixed;fillColor=#008a00;fontColor=#ffffff;strokeColor=#005700;" vertex="1" parent="1">
          <mxGeometry x="349" y="960" width="40" height="40" as="geometry" />
        </mxCell>
        <mxCell id="Z8tJJy5vMytfQh58pZOS-99" value="8300" style="ellipse;whiteSpace=wrap;html=1;aspect=fixed;" vertex="1" parent="1">
          <mxGeometry x="309" y="1050" width="40" height="40" as="geometry" />
        </mxCell>
        <mxCell id="Z8tJJy5vMytfQh58pZOS-104" style="edgeStyle=none;html=1;endArrow=none;endFill=0;" edge="1" parent="1" source="Z8tJJy5vMytfQh58pZOS-100" target="Z8tJJy5vMytfQh58pZOS-103">
          <mxGeometry relative="1" as="geometry" />
        </mxCell>
        <mxCell id="Z8tJJy5vMytfQh58pZOS-100" value="8407" style="ellipse;whiteSpace=wrap;html=1;aspect=fixed;" vertex="1" parent="1">
          <mxGeometry x="389" y="1050" width="40" height="40" as="geometry" />
        </mxCell>
        <mxCell id="Z8tJJy5vMytfQh58pZOS-102" value="" style="shape=flexArrow;endArrow=classic;html=1;" edge="1" parent="1">
          <mxGeometry width="50" height="50" relative="1" as="geometry">
            <mxPoint x="254" y="970" as="sourcePoint" />
            <mxPoint x="304" y="970" as="targetPoint" />
          </mxGeometry>
        </mxCell>
        <mxCell id="Z8tJJy5vMytfQh58pZOS-103" value="8405" style="ellipse;whiteSpace=wrap;html=1;aspect=fixed;" vertex="1" parent="1">
          <mxGeometry x="364" y="1120" width="40" height="40" as="geometry" />
        </mxCell>
        <mxCell id="Z8tJJy5vMytfQh58pZOS-105" value="b = -1" style="text;html=1;align=center;verticalAlign=middle;resizable=0;points=[];autosize=1;strokeColor=none;fillColor=none;" vertex="1" parent="1">
          <mxGeometry x="309" y="930" width="50" height="30" as="geometry" />
        </mxCell>
        <mxCell id="Z8tJJy5vMytfQh58pZOS-106" value="b = 2" style="text;html=1;align=center;verticalAlign=middle;resizable=0;points=[];autosize=1;strokeColor=none;fillColor=none;" vertex="1" parent="1">
          <mxGeometry x="344" y="860" width="50" height="30" as="geometry" />
        </mxCell>
        <mxCell id="Z8tJJy5vMytfQh58pZOS-107" value="" style="shape=flexArrow;endArrow=classic;html=1;" edge="1" parent="1">
          <mxGeometry width="50" height="50" relative="1" as="geometry">
            <mxPoint x="539" y="979.5" as="sourcePoint" />
            <mxPoint x="589" y="979.5" as="targetPoint" />
          </mxGeometry>
        </mxCell>
        <mxCell id="Z8tJJy5vMytfQh58pZOS-108" value="A" style="ellipse;whiteSpace=wrap;html=1;aspect=fixed;" vertex="1" parent="1">
          <mxGeometry x="714" y="880" width="40" height="40" as="geometry" />
        </mxCell>
        <mxCell id="Z8tJJy5vMytfQh58pZOS-109" value="A" style="ellipse;whiteSpace=wrap;html=1;aspect=fixed;" vertex="1" parent="1">
          <mxGeometry x="714" y="880" width="40" height="40" as="geometry" />
        </mxCell>
        <mxCell id="Z8tJJy5vMytfQh58pZOS-110" value="A" style="ellipse;whiteSpace=wrap;html=1;aspect=fixed;" vertex="1" parent="1">
          <mxGeometry x="714" y="880" width="40" height="40" as="geometry" />
        </mxCell>
        <mxCell id="Z8tJJy5vMytfQh58pZOS-111" value="A" style="ellipse;whiteSpace=wrap;html=1;aspect=fixed;" vertex="1" parent="1">
          <mxGeometry x="714" y="880" width="40" height="40" as="geometry" />
        </mxCell>
        <mxCell id="Z8tJJy5vMytfQh58pZOS-112" value="A" style="ellipse;whiteSpace=wrap;html=1;aspect=fixed;" vertex="1" parent="1">
          <mxGeometry x="714" y="880" width="40" height="40" as="geometry" />
        </mxCell>
        <mxCell id="Z8tJJy5vMytfQh58pZOS-113" value="A" style="ellipse;whiteSpace=wrap;html=1;aspect=fixed;" vertex="1" parent="1">
          <mxGeometry x="714" y="880" width="40" height="40" as="geometry" />
        </mxCell>
        <mxCell id="Z8tJJy5vMytfQh58pZOS-114" value="A" style="ellipse;whiteSpace=wrap;html=1;aspect=fixed;" vertex="1" parent="1">
          <mxGeometry x="714" y="880" width="40" height="40" as="geometry" />
        </mxCell>
        <mxCell id="Z8tJJy5vMytfQh58pZOS-115" value="A" style="ellipse;whiteSpace=wrap;html=1;aspect=fixed;" vertex="1" parent="1">
          <mxGeometry x="714" y="880" width="40" height="40" as="geometry" />
        </mxCell>
        <mxCell id="Z8tJJy5vMytfQh58pZOS-116" value="A" style="ellipse;whiteSpace=wrap;html=1;aspect=fixed;" vertex="1" parent="1">
          <mxGeometry x="714" y="880" width="40" height="40" as="geometry" />
        </mxCell>
        <mxCell id="Z8tJJy5vMytfQh58pZOS-117" value="A" style="ellipse;whiteSpace=wrap;html=1;aspect=fixed;" vertex="1" parent="1">
          <mxGeometry x="714" y="880" width="40" height="40" as="geometry" />
        </mxCell>
        <mxCell id="Z8tJJy5vMytfQh58pZOS-118" value="A" style="ellipse;whiteSpace=wrap;html=1;aspect=fixed;" vertex="1" parent="1">
          <mxGeometry x="714" y="880" width="40" height="40" as="geometry" />
        </mxCell>
        <mxCell id="Z8tJJy5vMytfQh58pZOS-119" value="A" style="ellipse;whiteSpace=wrap;html=1;aspect=fixed;" vertex="1" parent="1">
          <mxGeometry x="714" y="880" width="40" height="40" as="geometry" />
        </mxCell>
        <mxCell id="Z8tJJy5vMytfQh58pZOS-120" value="A" style="ellipse;whiteSpace=wrap;html=1;aspect=fixed;" vertex="1" parent="1">
          <mxGeometry x="714" y="880" width="40" height="40" as="geometry" />
        </mxCell>
        <mxCell id="Z8tJJy5vMytfQh58pZOS-122" style="edgeStyle=none;html=1;endArrow=none;endFill=0;" edge="1" parent="1" source="Z8tJJy5vMytfQh58pZOS-123" target="Z8tJJy5vMytfQh58pZOS-124">
          <mxGeometry relative="1" as="geometry" />
        </mxCell>
        <mxCell id="Z8tJJy5vMytfQh58pZOS-123" value="8500" style="ellipse;whiteSpace=wrap;html=1;aspect=fixed;fillColor=#008a00;fontColor=#ffffff;strokeColor=#005700;" vertex="1" parent="1">
          <mxGeometry x="714" y="880" width="40" height="40" as="geometry" />
        </mxCell>
        <mxCell id="Z8tJJy5vMytfQh58pZOS-124" value="9040" style="ellipse;whiteSpace=wrap;html=1;aspect=fixed;" vertex="1" parent="1">
          <mxGeometry x="759" y="960" width="40" height="40" as="geometry" />
        </mxCell>
        <mxCell id="Z8tJJy5vMytfQh58pZOS-125" style="edgeStyle=none;html=1;endArrow=none;endFill=0;" edge="1" parent="1" source="Z8tJJy5vMytfQh58pZOS-127" target="Z8tJJy5vMytfQh58pZOS-128">
          <mxGeometry relative="1" as="geometry" />
        </mxCell>
        <mxCell id="Z8tJJy5vMytfQh58pZOS-134" style="edgeStyle=none;html=1;endArrow=none;endFill=0;" edge="1" parent="1" source="Z8tJJy5vMytfQh58pZOS-127" target="Z8tJJy5vMytfQh58pZOS-130">
          <mxGeometry relative="1" as="geometry" />
        </mxCell>
        <mxCell id="Z8tJJy5vMytfQh58pZOS-127" value="8400" style="ellipse;whiteSpace=wrap;html=1;aspect=fixed;" vertex="1" parent="1">
          <mxGeometry x="634" y="1040" width="40" height="40" as="geometry" />
        </mxCell>
        <mxCell id="Z8tJJy5vMytfQh58pZOS-128" value="8300" style="ellipse;whiteSpace=wrap;html=1;aspect=fixed;" vertex="1" parent="1">
          <mxGeometry x="589" y="1120" width="40" height="40" as="geometry" />
        </mxCell>
        <mxCell id="Z8tJJy5vMytfQh58pZOS-135" style="edgeStyle=none;html=1;entryX=0;entryY=1;entryDx=0;entryDy=0;endArrow=none;endFill=0;" edge="1" parent="1" source="Z8tJJy5vMytfQh58pZOS-130" target="Z8tJJy5vMytfQh58pZOS-123">
          <mxGeometry relative="1" as="geometry" />
        </mxCell>
        <mxCell id="Z8tJJy5vMytfQh58pZOS-130" value="8407" style="ellipse;whiteSpace=wrap;html=1;aspect=fixed;" vertex="1" parent="1">
          <mxGeometry x="664" y="960" width="40" height="40" as="geometry" />
        </mxCell>
        <mxCell id="Z8tJJy5vMytfQh58pZOS-133" style="edgeStyle=none;html=1;endArrow=none;endFill=0;" edge="1" parent="1" source="Z8tJJy5vMytfQh58pZOS-131" target="Z8tJJy5vMytfQh58pZOS-127">
          <mxGeometry relative="1" as="geometry" />
        </mxCell>
        <mxCell id="Z8tJJy5vMytfQh58pZOS-131" value="8405" style="ellipse;whiteSpace=wrap;html=1;aspect=fixed;" vertex="1" parent="1">
          <mxGeometry x="674" y="1120" width="40" height="40" as="geometry" />
        </mxCell>
        <mxCell id="Z8tJJy5vMytfQh58pZOS-136" value="" style="shape=flexArrow;endArrow=classic;html=1;" edge="1" parent="1">
          <mxGeometry width="50" height="50" relative="1" as="geometry">
            <mxPoint x="824" y="979.5" as="sourcePoint" />
            <mxPoint x="874" y="979.5" as="targetPoint" />
          </mxGeometry>
        </mxCell>
        <mxCell id="Z8tJJy5vMytfQh58pZOS-137" value="A" style="ellipse;whiteSpace=wrap;html=1;aspect=fixed;" vertex="1" parent="1">
          <mxGeometry x="1004" y="970" width="40" height="40" as="geometry" />
        </mxCell>
        <mxCell id="Z8tJJy5vMytfQh58pZOS-138" value="A" style="ellipse;whiteSpace=wrap;html=1;aspect=fixed;" vertex="1" parent="1">
          <mxGeometry x="1004" y="970" width="40" height="40" as="geometry" />
        </mxCell>
        <mxCell id="Z8tJJy5vMytfQh58pZOS-139" value="A" style="ellipse;whiteSpace=wrap;html=1;aspect=fixed;" vertex="1" parent="1">
          <mxGeometry x="1004" y="970" width="40" height="40" as="geometry" />
        </mxCell>
        <mxCell id="Z8tJJy5vMytfQh58pZOS-140" value="A" style="ellipse;whiteSpace=wrap;html=1;aspect=fixed;" vertex="1" parent="1">
          <mxGeometry x="1004" y="970" width="40" height="40" as="geometry" />
        </mxCell>
        <mxCell id="Z8tJJy5vMytfQh58pZOS-141" value="A" style="ellipse;whiteSpace=wrap;html=1;aspect=fixed;" vertex="1" parent="1">
          <mxGeometry x="1004" y="970" width="40" height="40" as="geometry" />
        </mxCell>
        <mxCell id="Z8tJJy5vMytfQh58pZOS-142" value="A" style="ellipse;whiteSpace=wrap;html=1;aspect=fixed;" vertex="1" parent="1">
          <mxGeometry x="1004" y="970" width="40" height="40" as="geometry" />
        </mxCell>
        <mxCell id="Z8tJJy5vMytfQh58pZOS-143" value="A" style="ellipse;whiteSpace=wrap;html=1;aspect=fixed;" vertex="1" parent="1">
          <mxGeometry x="1004" y="970" width="40" height="40" as="geometry" />
        </mxCell>
        <mxCell id="Z8tJJy5vMytfQh58pZOS-144" value="A" style="ellipse;whiteSpace=wrap;html=1;aspect=fixed;" vertex="1" parent="1">
          <mxGeometry x="1004" y="970" width="40" height="40" as="geometry" />
        </mxCell>
        <mxCell id="Z8tJJy5vMytfQh58pZOS-145" value="A" style="ellipse;whiteSpace=wrap;html=1;aspect=fixed;" vertex="1" parent="1">
          <mxGeometry x="1004" y="970" width="40" height="40" as="geometry" />
        </mxCell>
        <mxCell id="Z8tJJy5vMytfQh58pZOS-146" value="A" style="ellipse;whiteSpace=wrap;html=1;aspect=fixed;" vertex="1" parent="1">
          <mxGeometry x="1004" y="970" width="40" height="40" as="geometry" />
        </mxCell>
        <mxCell id="Z8tJJy5vMytfQh58pZOS-147" value="A" style="ellipse;whiteSpace=wrap;html=1;aspect=fixed;" vertex="1" parent="1">
          <mxGeometry x="1004" y="970" width="40" height="40" as="geometry" />
        </mxCell>
        <mxCell id="Z8tJJy5vMytfQh58pZOS-148" value="A" style="ellipse;whiteSpace=wrap;html=1;aspect=fixed;" vertex="1" parent="1">
          <mxGeometry x="1004" y="970" width="40" height="40" as="geometry" />
        </mxCell>
        <mxCell id="Z8tJJy5vMytfQh58pZOS-149" value="A" style="ellipse;whiteSpace=wrap;html=1;aspect=fixed;" vertex="1" parent="1">
          <mxGeometry x="1004" y="970" width="40" height="40" as="geometry" />
        </mxCell>
        <mxCell id="Z8tJJy5vMytfQh58pZOS-150" style="edgeStyle=none;html=1;endArrow=none;endFill=0;" edge="1" parent="1" source="Z8tJJy5vMytfQh58pZOS-151" target="Z8tJJy5vMytfQh58pZOS-152">
          <mxGeometry relative="1" as="geometry" />
        </mxCell>
        <mxCell id="Z8tJJy5vMytfQh58pZOS-151" value="8500" style="ellipse;whiteSpace=wrap;html=1;aspect=fixed;" vertex="1" parent="1">
          <mxGeometry x="1004" y="970" width="40" height="40" as="geometry" />
        </mxCell>
        <mxCell id="Z8tJJy5vMytfQh58pZOS-152" value="9040" style="ellipse;whiteSpace=wrap;html=1;aspect=fixed;" vertex="1" parent="1">
          <mxGeometry x="1049" y="1050" width="40" height="40" as="geometry" />
        </mxCell>
        <mxCell id="Z8tJJy5vMytfQh58pZOS-153" style="edgeStyle=none;html=1;endArrow=none;endFill=0;" edge="1" parent="1" source="Z8tJJy5vMytfQh58pZOS-155" target="Z8tJJy5vMytfQh58pZOS-156">
          <mxGeometry relative="1" as="geometry" />
        </mxCell>
        <mxCell id="Z8tJJy5vMytfQh58pZOS-154" style="edgeStyle=none;html=1;endArrow=none;endFill=0;" edge="1" parent="1" source="Z8tJJy5vMytfQh58pZOS-155" target="Z8tJJy5vMytfQh58pZOS-158">
          <mxGeometry relative="1" as="geometry" />
        </mxCell>
        <mxCell id="Z8tJJy5vMytfQh58pZOS-155" value="8400" style="ellipse;whiteSpace=wrap;html=1;aspect=fixed;" vertex="1" parent="1">
          <mxGeometry x="906.5" y="970" width="40" height="40" as="geometry" />
        </mxCell>
        <mxCell id="Z8tJJy5vMytfQh58pZOS-156" value="8300" style="ellipse;whiteSpace=wrap;html=1;aspect=fixed;" vertex="1" parent="1">
          <mxGeometry x="861.5" y="1050" width="40" height="40" as="geometry" />
        </mxCell>
        <mxCell id="Z8tJJy5vMytfQh58pZOS-162" style="edgeStyle=none;html=1;endArrow=none;endFill=0;" edge="1" parent="1" source="Z8tJJy5vMytfQh58pZOS-158" target="Z8tJJy5vMytfQh58pZOS-151">
          <mxGeometry relative="1" as="geometry" />
        </mxCell>
        <mxCell id="Z8tJJy5vMytfQh58pZOS-158" value="8407" style="ellipse;whiteSpace=wrap;html=1;aspect=fixed;" vertex="1" parent="1">
          <mxGeometry x="936.5" y="890" width="40" height="40" as="geometry" />
        </mxCell>
        <mxCell id="Z8tJJy5vMytfQh58pZOS-159" style="edgeStyle=none;html=1;endArrow=none;endFill=0;" edge="1" parent="1" source="Z8tJJy5vMytfQh58pZOS-160" target="Z8tJJy5vMytfQh58pZOS-155">
          <mxGeometry relative="1" as="geometry" />
        </mxCell>
        <mxCell id="Z8tJJy5vMytfQh58pZOS-160" value="8405" style="ellipse;whiteSpace=wrap;html=1;aspect=fixed;" vertex="1" parent="1">
          <mxGeometry x="946.5" y="1050" width="40" height="40" as="geometry" />
        </mxCell>
        <mxCell id="Z8tJJy5vMytfQh58pZOS-163" value="b = 0" style="text;html=1;align=center;verticalAlign=middle;resizable=0;points=[];autosize=1;strokeColor=none;fillColor=none;" vertex="1" parent="1">
          <mxGeometry x="965" y="865" width="50" height="30" as="geometry" />
        </mxCell>
        <mxCell id="Z8tJJy5vMytfQh58pZOS-164" value="b = -1" style="text;html=1;align=center;verticalAlign=middle;resizable=0;points=[];autosize=1;strokeColor=none;fillColor=none;" vertex="1" parent="1">
          <mxGeometry x="1035" y="935" width="50" height="30" as="geometry" />
        </mxCell>
      </root>
    </mxGraphModel>
  </diagram>
  <diagram id="oJScTM-oZ_eeIBn-Rz-b" name="Grafo">
    <mxGraphModel dx="1421" dy="769" grid="1" gridSize="10" guides="1" tooltips="1" connect="1" arrows="1" fold="1" page="1" pageScale="1" pageWidth="1100" pageHeight="850" math="0" shadow="0">
      <root>
        <mxCell id="0" />
        <mxCell id="1" parent="0" />
        <mxCell id="JW451FF-Ha6WDNgzBeaK-1" value="&lt;span style=&quot;font-weight: 400;&quot;&gt;GRAFO&lt;/span&gt;" style="swimlane;whiteSpace=wrap;html=1;shadow=0;labelBackgroundColor=none;rounded=0;gradientColor=none;swimlaneFillColor=default;movable=1;resizable=1;rotatable=1;deletable=1;editable=1;connectable=1;startSize=23;" parent="1" vertex="1">
          <mxGeometry x="25" y="15" width="1050" height="820" as="geometry" />
        </mxCell>
        <mxCell id="JW451FF-Ha6WDNgzBeaK-2" value="9410" style="ellipse;whiteSpace=wrap;html=1;aspect=fixed;" parent="JW451FF-Ha6WDNgzBeaK-1" vertex="1">
          <mxGeometry x="965" y="755" width="40" height="40" as="geometry" />
        </mxCell>
        <mxCell id="JW451FF-Ha6WDNgzBeaK-4" style="edgeStyle=none;html=1;endArrow=none;endFill=0;" parent="JW451FF-Ha6WDNgzBeaK-1" source="JW451FF-Ha6WDNgzBeaK-3" target="JW451FF-Ha6WDNgzBeaK-2" edge="1">
          <mxGeometry relative="1" as="geometry" />
        </mxCell>
        <mxCell id="JW451FF-Ha6WDNgzBeaK-5" value="211" style="edgeLabel;html=1;align=center;verticalAlign=middle;resizable=0;points=[];" parent="JW451FF-Ha6WDNgzBeaK-4" vertex="1" connectable="0">
          <mxGeometry x="-0.4" y="1" relative="1" as="geometry">
            <mxPoint x="14" y="1" as="offset" />
          </mxGeometry>
        </mxCell>
        <mxCell id="JW451FF-Ha6WDNgzBeaK-3" value="9420" style="ellipse;whiteSpace=wrap;html=1;aspect=fixed;" parent="JW451FF-Ha6WDNgzBeaK-1" vertex="1">
          <mxGeometry x="855" y="755" width="40" height="40" as="geometry" />
        </mxCell>
        <mxCell id="JW451FF-Ha6WDNgzBeaK-7" style="edgeStyle=none;html=1;endArrow=none;endFill=0;" parent="JW451FF-Ha6WDNgzBeaK-1" source="JW451FF-Ha6WDNgzBeaK-6" target="JW451FF-Ha6WDNgzBeaK-3" edge="1">
          <mxGeometry relative="1" as="geometry" />
        </mxCell>
        <mxCell id="JW451FF-Ha6WDNgzBeaK-8" value="374" style="edgeLabel;html=1;align=center;verticalAlign=middle;resizable=0;points=[];" parent="JW451FF-Ha6WDNgzBeaK-7" vertex="1" connectable="0">
          <mxGeometry x="-0.116" y="1" relative="1" as="geometry">
            <mxPoint x="9" y="1" as="offset" />
          </mxGeometry>
        </mxCell>
        <mxCell id="JW451FF-Ha6WDNgzBeaK-6" value="9400" style="ellipse;whiteSpace=wrap;html=1;aspect=fixed;" parent="JW451FF-Ha6WDNgzBeaK-1" vertex="1">
          <mxGeometry x="745" y="755" width="40" height="40" as="geometry" />
        </mxCell>
        <mxCell id="JW451FF-Ha6WDNgzBeaK-13" style="edgeStyle=none;html=1;endArrow=none;endFill=0;" parent="JW451FF-Ha6WDNgzBeaK-1" source="JW451FF-Ha6WDNgzBeaK-9" target="JW451FF-Ha6WDNgzBeaK-6" edge="1">
          <mxGeometry relative="1" as="geometry" />
        </mxCell>
        <mxCell id="JW451FF-Ha6WDNgzBeaK-15" value="306" style="edgeLabel;html=1;align=center;verticalAlign=middle;resizable=0;points=[];" parent="JW451FF-Ha6WDNgzBeaK-13" vertex="1" connectable="0">
          <mxGeometry x="0.0879" relative="1" as="geometry">
            <mxPoint as="offset" />
          </mxGeometry>
        </mxCell>
        <mxCell id="JW451FF-Ha6WDNgzBeaK-9" value="9405" style="ellipse;whiteSpace=wrap;html=1;aspect=fixed;" parent="JW451FF-Ha6WDNgzBeaK-1" vertex="1">
          <mxGeometry x="635" y="755" width="40" height="40" as="geometry" />
        </mxCell>
        <mxCell id="JW451FF-Ha6WDNgzBeaK-12" style="edgeStyle=none;html=1;endArrow=none;endFill=0;" parent="JW451FF-Ha6WDNgzBeaK-1" source="JW451FF-Ha6WDNgzBeaK-10" target="JW451FF-Ha6WDNgzBeaK-9" edge="1">
          <mxGeometry relative="1" as="geometry" />
        </mxCell>
        <mxCell id="JW451FF-Ha6WDNgzBeaK-16" value="629" style="edgeLabel;html=1;align=center;verticalAlign=middle;resizable=0;points=[];" parent="JW451FF-Ha6WDNgzBeaK-12" vertex="1" connectable="0">
          <mxGeometry x="-0.0044" y="-1" relative="1" as="geometry">
            <mxPoint as="offset" />
          </mxGeometry>
        </mxCell>
        <mxCell id="JW451FF-Ha6WDNgzBeaK-26" style="edgeStyle=none;html=1;endArrow=none;endFill=0;" parent="JW451FF-Ha6WDNgzBeaK-1" source="JW451FF-Ha6WDNgzBeaK-10" target="JW451FF-Ha6WDNgzBeaK-18" edge="1">
          <mxGeometry relative="1" as="geometry" />
        </mxCell>
        <mxCell id="JW451FF-Ha6WDNgzBeaK-35" value="543" style="edgeLabel;html=1;align=center;verticalAlign=middle;resizable=0;points=[];" parent="JW451FF-Ha6WDNgzBeaK-26" vertex="1" connectable="0">
          <mxGeometry x="0.1733" y="2" relative="1" as="geometry">
            <mxPoint as="offset" />
          </mxGeometry>
        </mxCell>
        <mxCell id="JW451FF-Ha6WDNgzBeaK-10" value="9040" style="ellipse;whiteSpace=wrap;html=1;aspect=fixed;" parent="JW451FF-Ha6WDNgzBeaK-1" vertex="1">
          <mxGeometry x="505" y="755" width="40" height="40" as="geometry" />
        </mxCell>
        <mxCell id="JW451FF-Ha6WDNgzBeaK-14" style="edgeStyle=none;html=1;endArrow=none;endFill=0;" parent="JW451FF-Ha6WDNgzBeaK-1" source="JW451FF-Ha6WDNgzBeaK-11" target="JW451FF-Ha6WDNgzBeaK-6" edge="1">
          <mxGeometry relative="1" as="geometry" />
        </mxCell>
        <mxCell id="JW451FF-Ha6WDNgzBeaK-17" value="778" style="edgeLabel;html=1;align=center;verticalAlign=middle;resizable=0;points=[];" parent="JW451FF-Ha6WDNgzBeaK-14" vertex="1" connectable="0">
          <mxGeometry x="-0.128" y="1" relative="1" as="geometry">
            <mxPoint as="offset" />
          </mxGeometry>
        </mxCell>
        <mxCell id="JW451FF-Ha6WDNgzBeaK-24" style="edgeStyle=none;html=1;endArrow=none;endFill=0;" parent="JW451FF-Ha6WDNgzBeaK-1" source="JW451FF-Ha6WDNgzBeaK-11" target="JW451FF-Ha6WDNgzBeaK-22" edge="1">
          <mxGeometry relative="1" as="geometry" />
        </mxCell>
        <mxCell id="JW451FF-Ha6WDNgzBeaK-39" value="384" style="edgeLabel;html=1;align=center;verticalAlign=middle;resizable=0;points=[];" parent="JW451FF-Ha6WDNgzBeaK-24" vertex="1" connectable="0">
          <mxGeometry x="-0.0922" relative="1" as="geometry">
            <mxPoint as="offset" />
          </mxGeometry>
        </mxCell>
        <mxCell id="JW451FF-Ha6WDNgzBeaK-11" value="9000" style="ellipse;whiteSpace=wrap;html=1;aspect=fixed;" parent="JW451FF-Ha6WDNgzBeaK-1" vertex="1">
          <mxGeometry x="745" y="655" width="40" height="40" as="geometry" />
        </mxCell>
        <mxCell id="JW451FF-Ha6WDNgzBeaK-27" style="edgeStyle=none;html=1;endArrow=none;endFill=0;" parent="JW451FF-Ha6WDNgzBeaK-1" source="JW451FF-Ha6WDNgzBeaK-18" target="JW451FF-Ha6WDNgzBeaK-19" edge="1">
          <mxGeometry relative="1" as="geometry" />
        </mxCell>
        <mxCell id="JW451FF-Ha6WDNgzBeaK-36" value="284" style="edgeLabel;html=1;align=center;verticalAlign=middle;resizable=0;points=[];" parent="JW451FF-Ha6WDNgzBeaK-27" vertex="1" connectable="0">
          <mxGeometry x="0.1571" relative="1" as="geometry">
            <mxPoint as="offset" />
          </mxGeometry>
        </mxCell>
        <mxCell id="JW451FF-Ha6WDNgzBeaK-33" style="edgeStyle=none;html=1;endArrow=none;endFill=0;" parent="JW451FF-Ha6WDNgzBeaK-1" source="JW451FF-Ha6WDNgzBeaK-18" target="JW451FF-Ha6WDNgzBeaK-22" edge="1">
          <mxGeometry relative="1" as="geometry" />
        </mxCell>
        <mxCell id="JW451FF-Ha6WDNgzBeaK-34" value="622" style="edgeLabel;html=1;align=center;verticalAlign=middle;resizable=0;points=[];" parent="JW451FF-Ha6WDNgzBeaK-33" vertex="1" connectable="0">
          <mxGeometry x="0.0956" y="1" relative="1" as="geometry">
            <mxPoint as="offset" />
          </mxGeometry>
        </mxCell>
        <mxCell id="JW451FF-Ha6WDNgzBeaK-18" value="9200" style="ellipse;whiteSpace=wrap;html=1;aspect=fixed;" parent="JW451FF-Ha6WDNgzBeaK-1" vertex="1">
          <mxGeometry x="505" y="655" width="40" height="40" as="geometry" />
        </mxCell>
        <mxCell id="JW451FF-Ha6WDNgzBeaK-28" style="edgeStyle=none;html=1;endArrow=none;endFill=0;" parent="JW451FF-Ha6WDNgzBeaK-1" source="JW451FF-Ha6WDNgzBeaK-19" target="JW451FF-Ha6WDNgzBeaK-20" edge="1">
          <mxGeometry relative="1" as="geometry" />
        </mxCell>
        <mxCell id="JW451FF-Ha6WDNgzBeaK-37" value="82.4" style="edgeLabel;html=1;align=center;verticalAlign=middle;resizable=0;points=[];" parent="JW451FF-Ha6WDNgzBeaK-28" vertex="1" connectable="0">
          <mxGeometry x="0.1924" y="-1" relative="1" as="geometry">
            <mxPoint as="offset" />
          </mxGeometry>
        </mxCell>
        <mxCell id="JW451FF-Ha6WDNgzBeaK-19" value="8400" style="ellipse;whiteSpace=wrap;html=1;aspect=fixed;" parent="JW451FF-Ha6WDNgzBeaK-1" vertex="1">
          <mxGeometry x="345" y="655" width="40" height="40" as="geometry" />
        </mxCell>
        <mxCell id="JW451FF-Ha6WDNgzBeaK-29" style="edgeStyle=none;html=1;endArrow=none;endFill=0;" parent="JW451FF-Ha6WDNgzBeaK-1" source="JW451FF-Ha6WDNgzBeaK-20" target="JW451FF-Ha6WDNgzBeaK-21" edge="1">
          <mxGeometry relative="1" as="geometry" />
        </mxCell>
        <mxCell id="JW451FF-Ha6WDNgzBeaK-38" value="479" style="edgeLabel;html=1;align=center;verticalAlign=middle;resizable=0;points=[];" parent="JW451FF-Ha6WDNgzBeaK-29" vertex="1" connectable="0">
          <mxGeometry x="0.0384" y="-1" relative="1" as="geometry">
            <mxPoint as="offset" />
          </mxGeometry>
        </mxCell>
        <mxCell id="JW451FF-Ha6WDNgzBeaK-20" value="8407" style="ellipse;whiteSpace=wrap;html=1;aspect=fixed;" parent="JW451FF-Ha6WDNgzBeaK-1" vertex="1">
          <mxGeometry x="345" y="540" width="40" height="40" as="geometry" />
        </mxCell>
        <mxCell id="JW451FF-Ha6WDNgzBeaK-30" style="edgeStyle=none;html=1;endArrow=none;endFill=0;" parent="JW451FF-Ha6WDNgzBeaK-1" source="JW451FF-Ha6WDNgzBeaK-21" target="JW451FF-Ha6WDNgzBeaK-23" edge="1">
          <mxGeometry relative="1" as="geometry" />
        </mxCell>
        <mxCell id="JW451FF-Ha6WDNgzBeaK-41" value="660" style="edgeLabel;html=1;align=center;verticalAlign=middle;resizable=0;points=[];" parent="JW451FF-Ha6WDNgzBeaK-30" vertex="1" connectable="0">
          <mxGeometry x="0.0524" y="-1" relative="1" as="geometry">
            <mxPoint as="offset" />
          </mxGeometry>
        </mxCell>
        <mxCell id="JW451FF-Ha6WDNgzBeaK-21" value="8300" style="ellipse;whiteSpace=wrap;html=1;aspect=fixed;" parent="JW451FF-Ha6WDNgzBeaK-1" vertex="1">
          <mxGeometry x="505" y="540" width="40" height="40" as="geometry" />
        </mxCell>
        <mxCell id="JW451FF-Ha6WDNgzBeaK-25" style="edgeStyle=none;html=1;endArrow=none;endFill=0;" parent="JW451FF-Ha6WDNgzBeaK-1" source="JW451FF-Ha6WDNgzBeaK-22" target="JW451FF-Ha6WDNgzBeaK-23" edge="1">
          <mxGeometry relative="1" as="geometry" />
        </mxCell>
        <mxCell id="JW451FF-Ha6WDNgzBeaK-40" value="495" style="edgeLabel;html=1;align=center;verticalAlign=middle;resizable=0;points=[];" parent="JW451FF-Ha6WDNgzBeaK-25" vertex="1" connectable="0">
          <mxGeometry x="0.2114" y="-1" relative="1" as="geometry">
            <mxPoint as="offset" />
          </mxGeometry>
        </mxCell>
        <mxCell id="JW451FF-Ha6WDNgzBeaK-22" value="9103" style="ellipse;whiteSpace=wrap;html=1;aspect=fixed;" parent="JW451FF-Ha6WDNgzBeaK-1" vertex="1">
          <mxGeometry x="625" y="655" width="40" height="40" as="geometry" />
        </mxCell>
        <mxCell id="JW451FF-Ha6WDNgzBeaK-48" style="edgeStyle=none;html=1;entryX=0.5;entryY=1;entryDx=0;entryDy=0;endArrow=none;endFill=0;" parent="JW451FF-Ha6WDNgzBeaK-1" source="JW451FF-Ha6WDNgzBeaK-23" target="JW451FF-Ha6WDNgzBeaK-45" edge="1">
          <mxGeometry relative="1" as="geometry" />
        </mxCell>
        <mxCell id="JW451FF-Ha6WDNgzBeaK-52" value="907" style="edgeLabel;html=1;align=center;verticalAlign=middle;resizable=0;points=[];" parent="JW451FF-Ha6WDNgzBeaK-48" vertex="1" connectable="0">
          <mxGeometry x="-0.0019" y="-1" relative="1" as="geometry">
            <mxPoint as="offset" />
          </mxGeometry>
        </mxCell>
        <mxCell id="JW451FF-Ha6WDNgzBeaK-23" value="8500" style="ellipse;whiteSpace=wrap;html=1;aspect=fixed;" parent="JW451FF-Ha6WDNgzBeaK-1" vertex="1">
          <mxGeometry x="625" y="540" width="40" height="40" as="geometry" />
        </mxCell>
        <mxCell id="JW451FF-Ha6WDNgzBeaK-49" style="edgeStyle=none;html=1;endArrow=none;endFill=0;" parent="JW451FF-Ha6WDNgzBeaK-1" source="JW451FF-Ha6WDNgzBeaK-45" target="JW451FF-Ha6WDNgzBeaK-44" edge="1">
          <mxGeometry relative="1" as="geometry" />
        </mxCell>
        <mxCell id="JW451FF-Ha6WDNgzBeaK-53" value="620" style="edgeLabel;html=1;align=center;verticalAlign=middle;resizable=0;points=[];" parent="JW451FF-Ha6WDNgzBeaK-49" vertex="1" connectable="0">
          <mxGeometry x="0.1029" y="-1" relative="1" as="geometry">
            <mxPoint as="offset" />
          </mxGeometry>
        </mxCell>
        <mxCell id="JW451FF-Ha6WDNgzBeaK-58" style="edgeStyle=none;html=1;endArrow=none;endFill=0;" parent="JW451FF-Ha6WDNgzBeaK-1" source="JW451FF-Ha6WDNgzBeaK-45" target="JW451FF-Ha6WDNgzBeaK-42" edge="1">
          <mxGeometry relative="1" as="geometry" />
        </mxCell>
        <mxCell id="JW451FF-Ha6WDNgzBeaK-61" value="458" style="edgeLabel;html=1;align=center;verticalAlign=middle;resizable=0;points=[];" parent="JW451FF-Ha6WDNgzBeaK-58" vertex="1" connectable="0">
          <mxGeometry x="-0.0177" relative="1" as="geometry">
            <mxPoint as="offset" />
          </mxGeometry>
        </mxCell>
        <mxCell id="JW451FF-Ha6WDNgzBeaK-45" value="1000" style="ellipse;whiteSpace=wrap;html=1;aspect=fixed;" parent="JW451FF-Ha6WDNgzBeaK-1" vertex="1">
          <mxGeometry x="625" y="425" width="40" height="40" as="geometry" />
        </mxCell>
        <mxCell id="JW451FF-Ha6WDNgzBeaK-47" style="edgeStyle=none;html=1;endArrow=none;endFill=0;" parent="JW451FF-Ha6WDNgzBeaK-1" source="JW451FF-Ha6WDNgzBeaK-44" target="JW451FF-Ha6WDNgzBeaK-21" edge="1">
          <mxGeometry relative="1" as="geometry" />
        </mxCell>
        <mxCell id="JW451FF-Ha6WDNgzBeaK-51" value="537" style="edgeLabel;html=1;align=center;verticalAlign=middle;resizable=0;points=[];" parent="JW451FF-Ha6WDNgzBeaK-47" vertex="1" connectable="0">
          <mxGeometry x="0.1289" y="-2" relative="1" as="geometry">
            <mxPoint x="2" y="-2" as="offset" />
          </mxGeometry>
        </mxCell>
        <mxCell id="JW451FF-Ha6WDNgzBeaK-44" value="6300" style="ellipse;whiteSpace=wrap;html=1;aspect=fixed;" parent="JW451FF-Ha6WDNgzBeaK-1" vertex="1">
          <mxGeometry x="505" y="425" width="40" height="40" as="geometry" />
        </mxCell>
        <mxCell id="JW451FF-Ha6WDNgzBeaK-50" style="edgeStyle=none;html=1;endArrow=none;endFill=0;" parent="JW451FF-Ha6WDNgzBeaK-1" source="JW451FF-Ha6WDNgzBeaK-43" target="JW451FF-Ha6WDNgzBeaK-21" edge="1">
          <mxGeometry relative="1" as="geometry" />
        </mxCell>
        <mxCell id="JW451FF-Ha6WDNgzBeaK-54" value="855" style="edgeLabel;html=1;align=center;verticalAlign=middle;resizable=0;points=[];" parent="JW451FF-Ha6WDNgzBeaK-50" vertex="1" connectable="0">
          <mxGeometry x="0.0114" relative="1" as="geometry">
            <mxPoint as="offset" />
          </mxGeometry>
        </mxCell>
        <mxCell id="JW451FF-Ha6WDNgzBeaK-65" style="edgeStyle=none;html=1;endArrow=none;endFill=0;" parent="JW451FF-Ha6WDNgzBeaK-1" source="JW451FF-Ha6WDNgzBeaK-43" target="JW451FF-Ha6WDNgzBeaK-64" edge="1">
          <mxGeometry relative="1" as="geometry" />
        </mxCell>
        <mxCell id="JW451FF-Ha6WDNgzBeaK-66" value="258" style="edgeLabel;html=1;align=center;verticalAlign=middle;resizable=0;points=[];" parent="JW451FF-Ha6WDNgzBeaK-65" vertex="1" connectable="0">
          <mxGeometry x="0.0036" y="1" relative="1" as="geometry">
            <mxPoint as="offset" />
          </mxGeometry>
        </mxCell>
        <mxCell id="JW451FF-Ha6WDNgzBeaK-43" value="5500" style="ellipse;whiteSpace=wrap;html=1;aspect=fixed;" parent="JW451FF-Ha6WDNgzBeaK-1" vertex="1">
          <mxGeometry x="225" y="425" width="40" height="40" as="geometry" />
        </mxCell>
        <mxCell id="JW451FF-Ha6WDNgzBeaK-42" value="3100" style="ellipse;whiteSpace=wrap;html=1;aspect=fixed;" parent="JW451FF-Ha6WDNgzBeaK-1" vertex="1">
          <mxGeometry x="745" y="315" width="40" height="40" as="geometry" />
        </mxCell>
        <mxCell id="JW451FF-Ha6WDNgzBeaK-60" style="edgeStyle=none;html=1;endArrow=none;endFill=0;" parent="JW451FF-Ha6WDNgzBeaK-1" source="JW451FF-Ha6WDNgzBeaK-57" target="JW451FF-Ha6WDNgzBeaK-42" edge="1">
          <mxGeometry relative="1" as="geometry" />
        </mxCell>
        <mxCell id="JW451FF-Ha6WDNgzBeaK-63" value="31.3" style="edgeLabel;html=1;align=center;verticalAlign=middle;resizable=0;points=[];" parent="JW451FF-Ha6WDNgzBeaK-60" vertex="1" connectable="0">
          <mxGeometry x="-0.0321" y="2" relative="1" as="geometry">
            <mxPoint as="offset" />
          </mxGeometry>
        </mxCell>
        <mxCell id="JW451FF-Ha6WDNgzBeaK-57" value="3000" style="ellipse;whiteSpace=wrap;html=1;aspect=fixed;" parent="JW451FF-Ha6WDNgzBeaK-1" vertex="1">
          <mxGeometry x="625" y="315" width="40" height="40" as="geometry" />
        </mxCell>
        <mxCell id="JW451FF-Ha6WDNgzBeaK-80" style="edgeStyle=none;html=1;endArrow=none;endFill=0;" parent="JW451FF-Ha6WDNgzBeaK-1" source="JW451FF-Ha6WDNgzBeaK-56" target="JW451FF-Ha6WDNgzBeaK-57" edge="1">
          <mxGeometry relative="1" as="geometry" />
        </mxCell>
        <mxCell id="JW451FF-Ha6WDNgzBeaK-81" value="370" style="edgeLabel;html=1;align=center;verticalAlign=middle;resizable=0;points=[];" parent="JW451FF-Ha6WDNgzBeaK-80" vertex="1" connectable="0">
          <mxGeometry x="0.0012" y="1" relative="1" as="geometry">
            <mxPoint as="offset" />
          </mxGeometry>
        </mxCell>
        <mxCell id="JW451FF-Ha6WDNgzBeaK-56" value="5000" style="ellipse;whiteSpace=wrap;html=1;aspect=fixed;" parent="JW451FF-Ha6WDNgzBeaK-1" vertex="1">
          <mxGeometry x="345" y="315" width="40" height="40" as="geometry" />
        </mxCell>
        <mxCell id="JW451FF-Ha6WDNgzBeaK-69" style="edgeStyle=none;html=1;endArrow=none;endFill=0;" parent="JW451FF-Ha6WDNgzBeaK-1" source="JW451FF-Ha6WDNgzBeaK-55" target="JW451FF-Ha6WDNgzBeaK-43" edge="1">
          <mxGeometry relative="1" as="geometry" />
        </mxCell>
        <mxCell id="JW451FF-Ha6WDNgzBeaK-70" value="170" style="edgeLabel;html=1;align=center;verticalAlign=middle;resizable=0;points=[];" parent="JW451FF-Ha6WDNgzBeaK-69" vertex="1" connectable="0">
          <mxGeometry x="-0.015" relative="1" as="geometry">
            <mxPoint as="offset" />
          </mxGeometry>
        </mxCell>
        <mxCell id="JW451FF-Ha6WDNgzBeaK-71" style="edgeStyle=none;html=1;endArrow=none;endFill=0;" parent="JW451FF-Ha6WDNgzBeaK-1" source="JW451FF-Ha6WDNgzBeaK-55" target="JW451FF-Ha6WDNgzBeaK-64" edge="1">
          <mxGeometry relative="1" as="geometry" />
        </mxCell>
        <mxCell id="JW451FF-Ha6WDNgzBeaK-72" value="325" style="edgeLabel;html=1;align=center;verticalAlign=middle;resizable=0;points=[];" parent="JW451FF-Ha6WDNgzBeaK-71" vertex="1" connectable="0">
          <mxGeometry x="-0.0102" y="-1" relative="1" as="geometry">
            <mxPoint as="offset" />
          </mxGeometry>
        </mxCell>
        <mxCell id="JW451FF-Ha6WDNgzBeaK-76" style="edgeStyle=none;html=1;endArrow=none;endFill=0;" parent="JW451FF-Ha6WDNgzBeaK-1" source="JW451FF-Ha6WDNgzBeaK-55" target="JW451FF-Ha6WDNgzBeaK-75" edge="1">
          <mxGeometry relative="1" as="geometry" />
        </mxCell>
        <mxCell id="JW451FF-Ha6WDNgzBeaK-77" value="444" style="edgeLabel;html=1;align=center;verticalAlign=middle;resizable=0;points=[];" parent="JW451FF-Ha6WDNgzBeaK-76" vertex="1" connectable="0">
          <mxGeometry x="0.04" y="-1" relative="1" as="geometry">
            <mxPoint as="offset" />
          </mxGeometry>
        </mxCell>
        <mxCell id="JW451FF-Ha6WDNgzBeaK-55" value="5400" style="ellipse;whiteSpace=wrap;html=1;aspect=fixed;" parent="JW451FF-Ha6WDNgzBeaK-1" vertex="1">
          <mxGeometry x="225" y="315" width="40" height="40" as="geometry" />
        </mxCell>
        <mxCell id="JW451FF-Ha6WDNgzBeaK-59" style="edgeStyle=none;html=1;endArrow=none;endFill=0;" parent="JW451FF-Ha6WDNgzBeaK-1" source="JW451FF-Ha6WDNgzBeaK-57" target="JW451FF-Ha6WDNgzBeaK-45" edge="1">
          <mxGeometry relative="1" as="geometry">
            <mxPoint x="645" y="435" as="targetPoint" />
          </mxGeometry>
        </mxCell>
        <mxCell id="JW451FF-Ha6WDNgzBeaK-62" value="478" style="edgeLabel;html=1;align=center;verticalAlign=middle;resizable=0;points=[];" parent="JW451FF-Ha6WDNgzBeaK-59" vertex="1" connectable="0">
          <mxGeometry x="-0.0222" relative="1" as="geometry">
            <mxPoint as="offset" />
          </mxGeometry>
        </mxCell>
        <mxCell id="JW451FF-Ha6WDNgzBeaK-67" style="edgeStyle=none;html=1;endArrow=none;endFill=0;" parent="JW451FF-Ha6WDNgzBeaK-1" source="JW451FF-Ha6WDNgzBeaK-64" target="JW451FF-Ha6WDNgzBeaK-44" edge="1">
          <mxGeometry relative="1" as="geometry" />
        </mxCell>
        <mxCell id="JW451FF-Ha6WDNgzBeaK-68" value="505" style="edgeLabel;html=1;align=center;verticalAlign=middle;resizable=0;points=[];" parent="JW451FF-Ha6WDNgzBeaK-67" vertex="1" connectable="0">
          <mxGeometry x="-0.0162" y="1" relative="1" as="geometry">
            <mxPoint as="offset" />
          </mxGeometry>
        </mxCell>
        <mxCell id="JW451FF-Ha6WDNgzBeaK-73" style="edgeStyle=none;html=1;endArrow=none;endFill=0;" parent="JW451FF-Ha6WDNgzBeaK-1" source="JW451FF-Ha6WDNgzBeaK-64" target="JW451FF-Ha6WDNgzBeaK-56" edge="1">
          <mxGeometry relative="1" as="geometry" />
        </mxCell>
        <mxCell id="JW451FF-Ha6WDNgzBeaK-74" value="404" style="edgeLabel;html=1;align=center;verticalAlign=middle;resizable=0;points=[];" parent="JW451FF-Ha6WDNgzBeaK-73" vertex="1" connectable="0">
          <mxGeometry x="0.0694" y="-1" relative="1" as="geometry">
            <mxPoint as="offset" />
          </mxGeometry>
        </mxCell>
        <mxCell id="JW451FF-Ha6WDNgzBeaK-64" value="5700" style="ellipse;whiteSpace=wrap;html=1;aspect=fixed;" parent="JW451FF-Ha6WDNgzBeaK-1" vertex="1">
          <mxGeometry x="345" y="425" width="40" height="40" as="geometry" />
        </mxCell>
        <mxCell id="JW451FF-Ha6WDNgzBeaK-78" style="edgeStyle=none;html=1;endArrow=none;endFill=0;" parent="JW451FF-Ha6WDNgzBeaK-1" source="JW451FF-Ha6WDNgzBeaK-75" target="JW451FF-Ha6WDNgzBeaK-56" edge="1">
          <mxGeometry relative="1" as="geometry" />
        </mxCell>
        <mxCell id="JW451FF-Ha6WDNgzBeaK-79" value="443" style="edgeLabel;html=1;align=center;verticalAlign=middle;resizable=0;points=[];" parent="JW451FF-Ha6WDNgzBeaK-78" vertex="1" connectable="0">
          <mxGeometry x="0.0154" y="1" relative="1" as="geometry">
            <mxPoint as="offset" />
          </mxGeometry>
        </mxCell>
        <mxCell id="JW451FF-Ha6WDNgzBeaK-84" style="edgeStyle=none;html=1;endArrow=none;endFill=0;" parent="JW451FF-Ha6WDNgzBeaK-1" source="JW451FF-Ha6WDNgzBeaK-75" target="JW451FF-Ha6WDNgzBeaK-82" edge="1">
          <mxGeometry relative="1" as="geometry" />
        </mxCell>
        <mxCell id="JW451FF-Ha6WDNgzBeaK-86" value="157" style="edgeLabel;html=1;align=center;verticalAlign=middle;resizable=0;points=[];" parent="JW451FF-Ha6WDNgzBeaK-84" vertex="1" connectable="0">
          <mxGeometry x="0.0619" relative="1" as="geometry">
            <mxPoint as="offset" />
          </mxGeometry>
        </mxCell>
        <mxCell id="JW451FF-Ha6WDNgzBeaK-75" value="5300" style="ellipse;whiteSpace=wrap;html=1;aspect=fixed;" parent="JW451FF-Ha6WDNgzBeaK-1" vertex="1">
          <mxGeometry x="225" y="215" width="40" height="40" as="geometry" />
        </mxCell>
        <mxCell id="JW451FF-Ha6WDNgzBeaK-85" style="edgeStyle=none;html=1;endArrow=none;endFill=0;" parent="JW451FF-Ha6WDNgzBeaK-1" source="JW451FF-Ha6WDNgzBeaK-82" target="JW451FF-Ha6WDNgzBeaK-83" edge="1">
          <mxGeometry relative="1" as="geometry" />
        </mxCell>
        <mxCell id="JW451FF-Ha6WDNgzBeaK-87" value="209" style="edgeLabel;html=1;align=center;verticalAlign=middle;resizable=0;points=[];" parent="JW451FF-Ha6WDNgzBeaK-85" vertex="1" connectable="0">
          <mxGeometry x="-0.0083" y="-1" relative="1" as="geometry">
            <mxPoint as="offset" />
          </mxGeometry>
        </mxCell>
        <mxCell id="JW451FF-Ha6WDNgzBeaK-82" value="4700" style="ellipse;whiteSpace=wrap;html=1;aspect=fixed;" parent="JW451FF-Ha6WDNgzBeaK-1" vertex="1">
          <mxGeometry x="225" y="135" width="40" height="40" as="geometry" />
        </mxCell>
        <mxCell id="JW451FF-Ha6WDNgzBeaK-90" style="edgeStyle=none;html=1;endArrow=none;endFill=0;" parent="JW451FF-Ha6WDNgzBeaK-1" source="JW451FF-Ha6WDNgzBeaK-83" target="JW451FF-Ha6WDNgzBeaK-88" edge="1">
          <mxGeometry relative="1" as="geometry" />
        </mxCell>
        <mxCell id="JW451FF-Ha6WDNgzBeaK-92" value="329" style="edgeLabel;html=1;align=center;verticalAlign=middle;resizable=0;points=[];" parent="JW451FF-Ha6WDNgzBeaK-90" vertex="1" connectable="0">
          <mxGeometry x="0.0019" relative="1" as="geometry">
            <mxPoint as="offset" />
          </mxGeometry>
        </mxCell>
        <mxCell id="JW451FF-Ha6WDNgzBeaK-83" value="4000" style="ellipse;whiteSpace=wrap;html=1;aspect=fixed;" parent="JW451FF-Ha6WDNgzBeaK-1" vertex="1">
          <mxGeometry x="345" y="135" width="40" height="40" as="geometry" />
        </mxCell>
        <mxCell id="JW451FF-Ha6WDNgzBeaK-91" style="edgeStyle=none;html=1;endArrow=none;endFill=0;" parent="JW451FF-Ha6WDNgzBeaK-1" source="JW451FF-Ha6WDNgzBeaK-88" target="JW451FF-Ha6WDNgzBeaK-89" edge="1">
          <mxGeometry relative="1" as="geometry" />
        </mxCell>
        <mxCell id="JW451FF-Ha6WDNgzBeaK-93" value="92.9" style="edgeLabel;html=1;align=center;verticalAlign=middle;resizable=0;points=[];" parent="JW451FF-Ha6WDNgzBeaK-91" vertex="1" connectable="0">
          <mxGeometry x="0.0245" y="-1" relative="1" as="geometry">
            <mxPoint as="offset" />
          </mxGeometry>
        </mxCell>
        <mxCell id="JW451FF-Ha6WDNgzBeaK-88" value="4400" style="ellipse;whiteSpace=wrap;html=1;aspect=fixed;" parent="JW451FF-Ha6WDNgzBeaK-1" vertex="1">
          <mxGeometry x="345" y="45" width="40" height="40" as="geometry" />
        </mxCell>
        <mxCell id="JW451FF-Ha6WDNgzBeaK-89" value="4600" style="ellipse;whiteSpace=wrap;html=1;aspect=fixed;" parent="JW451FF-Ha6WDNgzBeaK-1" vertex="1">
          <mxGeometry x="455" y="45" width="40" height="40" as="geometry" />
        </mxCell>
        <mxCell id="JW451FF-Ha6WDNgzBeaK-95" style="edgeStyle=none;html=1;endArrow=none;endFill=0;" parent="JW451FF-Ha6WDNgzBeaK-1" source="JW451FF-Ha6WDNgzBeaK-94" target="JW451FF-Ha6WDNgzBeaK-83" edge="1">
          <mxGeometry relative="1" as="geometry" />
        </mxCell>
        <mxCell id="JW451FF-Ha6WDNgzBeaK-97" value="158" style="edgeLabel;html=1;align=center;verticalAlign=middle;resizable=0;points=[];" parent="JW451FF-Ha6WDNgzBeaK-95" vertex="1" connectable="0">
          <mxGeometry x="0.0804" y="1" relative="1" as="geometry">
            <mxPoint as="offset" />
          </mxGeometry>
        </mxCell>
        <mxCell id="JW451FF-Ha6WDNgzBeaK-96" style="edgeStyle=none;html=1;endArrow=none;endFill=0;" parent="JW451FF-Ha6WDNgzBeaK-1" source="JW451FF-Ha6WDNgzBeaK-94" target="JW451FF-Ha6WDNgzBeaK-56" edge="1">
          <mxGeometry relative="1" as="geometry" />
        </mxCell>
        <mxCell id="JW451FF-Ha6WDNgzBeaK-98" value="522" style="edgeLabel;html=1;align=center;verticalAlign=middle;resizable=0;points=[];" parent="JW451FF-Ha6WDNgzBeaK-96" vertex="1" connectable="0">
          <mxGeometry x="-0.0346" relative="1" as="geometry">
            <mxPoint as="offset" />
          </mxGeometry>
        </mxCell>
        <mxCell id="JW451FF-Ha6WDNgzBeaK-103" style="edgeStyle=none;html=1;endArrow=none;endFill=0;" parent="JW451FF-Ha6WDNgzBeaK-1" source="JW451FF-Ha6WDNgzBeaK-94" target="JW451FF-Ha6WDNgzBeaK-99" edge="1">
          <mxGeometry relative="1" as="geometry" />
        </mxCell>
        <mxCell id="JW451FF-Ha6WDNgzBeaK-109" value="620" style="edgeLabel;html=1;align=center;verticalAlign=middle;resizable=0;points=[];" parent="JW451FF-Ha6WDNgzBeaK-103" vertex="1" connectable="0">
          <mxGeometry y="1" relative="1" as="geometry">
            <mxPoint as="offset" />
          </mxGeometry>
        </mxCell>
        <mxCell id="JW451FF-Ha6WDNgzBeaK-94" value="4200" style="ellipse;whiteSpace=wrap;html=1;aspect=fixed;" parent="JW451FF-Ha6WDNgzBeaK-1" vertex="1">
          <mxGeometry x="345" y="215" width="40" height="40" as="geometry" />
        </mxCell>
        <mxCell id="JW451FF-Ha6WDNgzBeaK-104" style="edgeStyle=none;html=1;endArrow=none;endFill=0;" parent="JW451FF-Ha6WDNgzBeaK-1" source="JW451FF-Ha6WDNgzBeaK-99" target="JW451FF-Ha6WDNgzBeaK-102" edge="1">
          <mxGeometry relative="1" as="geometry" />
        </mxCell>
        <mxCell id="JW451FF-Ha6WDNgzBeaK-110" value="173" style="edgeLabel;html=1;align=center;verticalAlign=middle;resizable=0;points=[];" parent="JW451FF-Ha6WDNgzBeaK-104" vertex="1" connectable="0">
          <mxGeometry x="0.069" y="-1" relative="1" as="geometry">
            <mxPoint as="offset" />
          </mxGeometry>
        </mxCell>
        <mxCell id="JW451FF-Ha6WDNgzBeaK-105" style="edgeStyle=none;html=1;endArrow=none;endFill=0;" parent="JW451FF-Ha6WDNgzBeaK-1" source="JW451FF-Ha6WDNgzBeaK-99" target="JW451FF-Ha6WDNgzBeaK-100" edge="1">
          <mxGeometry relative="1" as="geometry" />
        </mxCell>
        <mxCell id="JW451FF-Ha6WDNgzBeaK-111" value="20.2" style="edgeLabel;html=1;align=center;verticalAlign=middle;resizable=0;points=[];" parent="JW451FF-Ha6WDNgzBeaK-105" vertex="1" connectable="0">
          <mxGeometry x="0.1418" y="1" relative="1" as="geometry">
            <mxPoint as="offset" />
          </mxGeometry>
        </mxCell>
        <mxCell id="JW451FF-Ha6WDNgzBeaK-99" value="3500" style="ellipse;whiteSpace=wrap;html=1;aspect=fixed;" parent="JW451FF-Ha6WDNgzBeaK-1" vertex="1">
          <mxGeometry x="505" y="215" width="40" height="40" as="geometry" />
        </mxCell>
        <mxCell id="JW451FF-Ha6WDNgzBeaK-106" style="edgeStyle=none;html=1;endArrow=none;endFill=0;" parent="JW451FF-Ha6WDNgzBeaK-1" source="JW451FF-Ha6WDNgzBeaK-100" target="JW451FF-Ha6WDNgzBeaK-101" edge="1">
          <mxGeometry relative="1" as="geometry" />
        </mxCell>
        <mxCell id="JW451FF-Ha6WDNgzBeaK-113" value="320" style="edgeLabel;html=1;align=center;verticalAlign=middle;resizable=0;points=[];" parent="JW451FF-Ha6WDNgzBeaK-106" vertex="1" connectable="0">
          <mxGeometry x="0.0115" relative="1" as="geometry">
            <mxPoint as="offset" />
          </mxGeometry>
        </mxCell>
        <mxCell id="JW451FF-Ha6WDNgzBeaK-107" style="edgeStyle=none;html=1;endArrow=none;endFill=0;" parent="JW451FF-Ha6WDNgzBeaK-1" source="JW451FF-Ha6WDNgzBeaK-100" target="JW451FF-Ha6WDNgzBeaK-42" edge="1">
          <mxGeometry relative="1" as="geometry" />
        </mxCell>
        <mxCell id="JW451FF-Ha6WDNgzBeaK-114" value="577" style="edgeLabel;html=1;align=center;verticalAlign=middle;resizable=0;points=[];" parent="JW451FF-Ha6WDNgzBeaK-107" vertex="1" connectable="0">
          <mxGeometry x="-0.0346" relative="1" as="geometry">
            <mxPoint as="offset" />
          </mxGeometry>
        </mxCell>
        <mxCell id="JW451FF-Ha6WDNgzBeaK-108" style="edgeStyle=none;html=1;endArrow=none;endFill=0;" parent="JW451FF-Ha6WDNgzBeaK-1" source="JW451FF-Ha6WDNgzBeaK-100" target="JW451FF-Ha6WDNgzBeaK-57" edge="1">
          <mxGeometry relative="1" as="geometry" />
        </mxCell>
        <mxCell id="JW451FF-Ha6WDNgzBeaK-115" value="567" style="edgeLabel;html=1;align=center;verticalAlign=middle;resizable=0;points=[];" parent="JW451FF-Ha6WDNgzBeaK-108" vertex="1" connectable="0">
          <mxGeometry x="0.0521" y="-1" relative="1" as="geometry">
            <mxPoint as="offset" />
          </mxGeometry>
        </mxCell>
        <mxCell id="JW451FF-Ha6WDNgzBeaK-100" value="3400" style="ellipse;whiteSpace=wrap;html=1;aspect=fixed;" parent="JW451FF-Ha6WDNgzBeaK-1" vertex="1">
          <mxGeometry x="625" y="215" width="40" height="40" as="geometry" />
        </mxCell>
        <mxCell id="JW451FF-Ha6WDNgzBeaK-101" value="3300" style="ellipse;whiteSpace=wrap;html=1;aspect=fixed;" parent="JW451FF-Ha6WDNgzBeaK-1" vertex="1">
          <mxGeometry x="745" y="215" width="40" height="40" as="geometry" />
        </mxCell>
        <mxCell id="JW451FF-Ha6WDNgzBeaK-102" value="3600" style="ellipse;whiteSpace=wrap;html=1;aspect=fixed;" parent="JW451FF-Ha6WDNgzBeaK-1" vertex="1">
          <mxGeometry x="505" y="135" width="40" height="40" as="geometry" />
        </mxCell>
      </root>
    </mxGraphModel>
  </diagram>
</mxfile>
